<svg xmlns="http://www.w3.org/2000/svg" width="630" height="630" viewBox="0 0 630 630">
  <g id="constellation-drominad" transform="translate(-1205 -3044)">
    <rect id="bg" width="630" height="630" transform="translate(1205 3044)" fill="none" opacity="0"/>
    <g id="lines">
      <path id="line" d="M1520,3359l175.318-7.889,44.4,77.708,71.159,15.875-152.52,61.974" fill="none" stroke="#ccad6c" stroke-width="1"/>
      <line id="line-2" data-name="line" x1="115" y2="90" transform="translate(1405 3359)" fill="none" stroke="#ccad6c" stroke-width="1"/>
      <path id="line-3" data-name="line" d="M1816,3385l-151.083-126.094,30.215,91.983" fill="none" stroke="#ccad6c" stroke-width="1"/>
    </g>
    <g id="stars">
      <circle id="star" cx="1" cy="1" r="1" transform="translate(1519 3358)" fill="#fff"/>
      <circle id="star-2" data-name="star" cx="3" cy="3" r="3" transform="translate(1402 3446)" fill="#fff"/>
      <circle id="star-3" data-name="star" cx="4.5" cy="4.5" r="4.5" transform="translate(1654 3502)" fill="#fff"/>
      <circle id="star-4" data-name="star" cx="4.5" cy="4.5" r="4.5" transform="translate(1735 3424)" fill="#fff"/>
      <circle id="star-5" data-name="star" cx="3.5" cy="3.5" r="3.5" transform="translate(1807 3441)" fill="#fff"/>
      <circle id="star-6" data-name="star" cx="3" cy="3" r="3" transform="translate(1813 3382)" fill="#fff"/>
      <circle id="star-7" data-name="star" cx="3" cy="3" r="3" transform="translate(1692 3348)" fill="#fff"/>
      <circle id="star-8" data-name="star" cx="5" cy="5" r="5" transform="translate(1660 3254)" fill="#fff"/>
    </g>
  </g>
</svg>
