<svg xmlns="http://www.w3.org/2000/svg" width="630" height="630" viewBox="0 0 630 630">
  <g id="constellation-selish" transform="translate(-803 -3115)">
    <rect id="bg" width="630" height="630" transform="translate(803 3115)" fill="none" opacity="0"/>
    <g id="lines">
      <path id="line" d="M1118,3430l-16.623,23.544-152.591,57.169-128.533-73.368,98.946,4.719,10.707-4.551,31.337-29.416,56.651,24.132,83.484,21.315" fill="none" stroke="#ccad6c" stroke-width="1"/>
    </g>
    <g id="stars">
      <circle id="star" cx="1" cy="1" r="1" transform="translate(1117 3429)" fill="#fff"/>
      <circle id="star-2" data-name="star" cx="4" cy="4" r="4" transform="translate(1097 3449)" fill="#fff"/>
      <circle id="star-3" data-name="star" cx="4" cy="4" r="4" transform="translate(957 3404)" fill="#fff"/>
      <circle id="star-4" data-name="star" cx="3" cy="3" r="3" transform="translate(1015 3429)" fill="#fff"/>
      <circle id="star-5" data-name="star" cx="3.5" cy="3.5" r="3.5" transform="translate(926 3434)" fill="#fff"/>
      <circle id="star-6" data-name="star" cx="3.5" cy="3.5" r="3.5" transform="translate(817 3434)" fill="#fff"/>
      <circle id="star-7" data-name="star" cx="2" cy="2" r="2" transform="translate(917 3440)" fill="#fff"/>
      <circle id="star-8" data-name="star" cx="3.5" cy="3.5" r="3.5" transform="translate(945 3507)" fill="#fff"/>
    </g>
  </g>
</svg>
