<?xml version="1.0" encoding="utf-8"?>
<!-- Generator: Adobe Illustrator 16.0.0, SVG Export Plug-In . SVG Version: 6.00 Build 0)  -->
<!DOCTYPE svg PUBLIC "-//W3C//DTD SVG 1.1//EN" "http://www.w3.org/Graphics/SVG/1.1/DTD/svg11.dtd" [
	<!ENTITY ns_extend "http://ns.adobe.com/Extensibility/1.0/">
	<!ENTITY ns_ai "http://ns.adobe.com/AdobeIllustrator/10.0/">
	<!ENTITY ns_graphs "http://ns.adobe.com/Graphs/1.0/">
	<!ENTITY ns_vars "http://ns.adobe.com/Variables/1.0/">
	<!ENTITY ns_imrep "http://ns.adobe.com/ImageReplacement/1.0/">
	<!ENTITY ns_sfw "http://ns.adobe.com/SaveForWeb/1.0/">
	<!ENTITY ns_custom "http://ns.adobe.com/GenericCustomNamespace/1.0/">
	<!ENTITY ns_adobe_xpath "http://ns.adobe.com/XPath/1.0/">
]>
<svg version="1.1" id="Capa_1" xmlns:x="&ns_extend;" xmlns:i="&ns_ai;" xmlns:graph="&ns_graphs;"
	 xmlns="http://www.w3.org/2000/svg" xmlns:xlink="http://www.w3.org/1999/xlink" x="0px" y="0px" width="300px" height="300px"
	 viewBox="0 0 300 300" enable-background="new 0 0 300 300" xml:space="preserve">
<metadata>
	<sfw  xmlns="&ns_sfw;">
		<slices></slices>
		<sliceSourceBounds  height="278.5" width="278.5" y="11.25" x="10.75" bottomLeftOrigin="true"></sliceSourceBounds>
	</sfw>
</metadata>
<g>
	<path fill="#C5A360" d="M150.5,22.75c25.729,0,48.31,13.48,61.069,33.76c-7.71-26.45-32.13-45.76-61.069-45.76
		c-28.94,0-53.36,19.31-61.07,45.76C102.19,36.23,124.77,22.75,150.5,22.75z"/>
	<path fill="#C5A360" d="M23.25,150c0-25.73,13.479-48.31,33.76-61.07C30.56,96.64,11.25,121.06,11.25,150
		c0,28.939,19.31,53.359,45.76,61.07C36.73,198.311,23.25,175.73,23.25,150z"/>
	<path fill="#C5A360" d="M150.5,277.25c-25.73,0-48.311-13.48-61.07-33.76c7.71,26.449,32.13,45.76,61.07,45.76
		c28.939,0,53.359-19.311,61.069-45.76C198.81,263.77,176.23,277.25,150.5,277.25z"/>
	<path fill="#C5A360" d="M243.99,88.93c20.278,12.76,33.76,35.34,33.76,61.07c0,25.73-13.48,48.311-33.76,61.07
		c26.449-7.711,45.76-32.131,45.76-61.07C289.75,121.06,270.44,96.64,243.99,88.93z"/>
	<path fill="#C5A360" d="M169.955,163.334l-8.43-8.561l12.015-0.092l-11.064-4.684l11.064-4.681l-12.015-0.093l8.431-8.559
		l-11.136,4.512l4.515-11.133l-8.563,8.43l-0.09-12.014L150,137.524l-4.683-11.063l-0.092,12.012l-8.559-8.429l4.512,11.133
		l-11.133-4.511l8.428,8.559l-12.012,0.093L137.524,150l-11.063,4.684l12.013,0.092l-8.429,8.56l11.133-4.512l-4.511,11.133
		l8.559-8.429l0.092,12.013L150,162.477l4.682,11.063l0.092-12.015l8.561,8.431l-4.513-11.134L169.955,163.334z M150,159
		c-4.962,0-9-4.037-9-9c0-4.962,4.038-9,9-9c4.963,0,9,4.038,9,9C159,154.963,154.963,159,150,159z"/>
	<path fill="#C5A360" d="M218.691,145.552l-10.461-2.827c-0.004-0.002-0.009-0.003-0.014-0.005v0.001l-0.021-0.005
		c-3.303-26.533-24.381-47.611-50.914-50.914l-0.005-0.019l0,0l-2.833-10.482C150.543,62.583,150,38,150,38
		s-0.544,24.591-4.448,43.31l-2.826,10.459c-0.002,0.004-0.003,0.01-0.005,0.014h0.001l-0.005,0.018
		c-26.533,3.303-47.612,24.381-50.915,50.915l-10.508,2.839C62.578,149.457,38,150,38,150s24.597,0.544,43.315,4.449l10.452,2.824
		c0.005,0.002,0.01,0.004,0.016,0.006v-0.002l0.018,0.006c3.303,26.533,24.381,47.611,50.914,50.914l2.84,10.51
		C149.457,237.424,150,262,150,262s0.544-24.598,4.449-43.314l2.823-10.451c0.002-0.006,0.004-0.012,0.006-0.018l-0.001-0.001
		l0.006-0.019c26.532-3.303,47.61-24.521,50.913-51.053l0.021-0.146c0.001,0,0.001,0,0.002,0l10.48-2.692
		C237.417,150.405,262,149.93,262,149.93S237.41,149.456,218.691,145.552z M99.35,150c24.61-6.65,44-26.04,50.65-50.65
		c6.649,24.61,26.04,44,50.649,50.65c-24.609,6.65-44,26.04-50.649,50.65C143.35,176.04,123.96,156.65,99.35,150z M199.732,140.324
		c-18.88-6.229-33.827-21.176-40.057-40.057C179.895,104.179,195.82,120.105,199.732,140.324z M140.324,100.268
		c-6.229,18.88-21.177,33.827-40.058,40.057C104.179,120.105,120.105,104.179,140.324,100.268z M100.268,159.676
		c18.881,6.229,33.827,21.178,40.058,40.057C120.105,195.82,104.179,179.895,100.268,159.676z M159.676,199.732
		c6.229-18.881,21.177-33.828,40.057-40.058C195.82,179.896,179.896,195.82,159.676,199.732z"/>
</g>
</svg>
