<svg id="nalthian_system" xmlns="http://www.w3.org/2000/svg" width="1220" height="1220" viewBox="0 0 1220 1220">
    <g class="system__rings_content">
        <rect id="system__bg" width="1220" height="1220" fill="none"/>
        <g id="system__ring_content">
        <g id="system__ring" fill="none" stroke="#ff00c4" stroke-width="1">
            <circle cx="610" cy="610" r="610" stroke="none"/>
            <circle cx="610" cy="610" r="609.5" fill="none"/>
        </g>
        </g>
        <g class="system__ring_content" data-name="system__ring_content">
        <path class="system__ring" data-name="system__ring" d="M1537,576c0,3.544-4.032,7.044-4.1,10.572s3.838,7.187,3.71,10.714-4.285,6.893-4.478,10.416,3.573,7.322,3.317,10.843-4.535,6.729-4.857,10.245,3.3,7.447,2.917,10.956-4.78,6.559-5.231,10.06,3.026,7.564,2.509,11.057-5.018,6.377-5.6,9.86,2.742,7.67,2.1,11.142-5.25,6.186-5.959,9.646,2.456,7.765,1.682,11.212-5.477,5.985-6.315,9.416,2.167,7.853,1.266,11.268-5.695,5.778-6.661,9.175,1.872,7.928.843,11.308-5.906,5.56-7,8.92,1.577,7.992.423,11.332-6.11,5.336-7.326,8.653,1.278,8.043,0,11.338-6.3,5.1-7.642,8.375.977,8.085-.421,11.33-6.491,4.866-7.95,8.084.676,8.116-.842,11.306-6.666,4.624-8.244,7.786.375,8.134-1.261,11.267-6.831,4.371-8.527,7.474.074,8.142-1.677,11.213-6.99,4.114-8.8,7.151-.229,8.141-2.092,11.144-7.137,3.853-9.056,6.822-.528,8.125-2.5,11.059-7.273,3.587-9.3,6.484-.827,8.1-2.907,10.957-7.4,3.317-9.535,6.138-1.125,8.063-3.309,10.842-7.517,3.042-9.752,5.783-1.421,8.015-3.706,10.713-7.624,2.764-9.959,5.42-1.714,7.959-4.1,10.572-7.722,2.48-10.151,5.049-2.006,7.891-4.484,10.414-7.807,2.2-10.33,4.674-2.293,7.81-4.861,10.242-7.882,1.907-10.495,4.29-2.578,7.721-5.236,10.056-7.946,1.617-10.644,3.9-2.861,7.622-5.6,9.858-8,1.323-10.781,3.507-3.14,7.512-5.961,9.646-8.043,1.027-10.9,3.108-3.415,7.391-6.312,9.42-8.075.73-11.01,2.7-3.682,7.259-6.654,9.179-8.1.432-11.1,2.3-3.949,7.119-6.99,8.928-8.106.132-11.179,1.885-4.207,6.967-7.313,8.662-8.1-.168-11.242,1.471-4.464,6.806-7.63,8.385-8.093-.468-11.288,1.052-4.714,6.636-7.937,8.1-8.07-.769-11.32.632-4.955,6.456-8.23,7.8-8.037-1.069-11.336.211-5.193,6.267-8.516,7.485-7.99-1.367-11.336-.212-5.421,6.069-8.788,7.163-7.934-1.664-11.32-.634-5.644,5.863-9.049,6.83-7.865-1.958-11.289-1.054-5.857,5.648-9.3,6.488-7.787-2.249-11.242-1.474-6.064,5.427-9.532,6.138-7.7-2.537-11.179-1.891-6.26,5.2-9.753,5.78-7.6-2.822-11.1-2.3-6.448,4.962-9.961,5.414-7.487-3.1-11.009-2.713-6.625,4.722-10.153,5.044-7.368-3.375-10.9-3.117-6.795,4.473-10.333,4.667-7.239-3.643-10.78-3.514-6.955,4.224-10.5,4.288-7.1-3.9-10.645-3.9-7.116,3.968-10.645,3.9-6.969-4.16-10.5-4.288-7.256,3.707-10.78,3.514-6.812-4.409-10.332-4.667-7.386,3.439-10.9,3.117-6.645-4.658-10.154-5.044-7.507,3.164-11.008,2.713-6.469-4.9-9.962-5.414-7.619,2.885-11.1,2.3-6.282-5.135-9.754-5.78-7.719,2.6-11.179,1.891-6.086-5.364-9.533-6.138-7.81,2.312-11.241,1.475-5.883-5.588-9.3-6.489-7.892,2.019-11.29,1.053-5.67-5.8-9.05-6.83-7.96,1.725-11.32.634-5.449-6.01-8.789-7.164-8.019,1.428-11.336.212-5.221-6.208-8.516-7.485-8.065,1.127-11.336-.211-4.986-6.4-8.231-7.8-8.1.827-11.32-.632-4.745-6.578-7.935-8.1-8.128.527-11.29-1.052-4.5-6.75-7.63-8.385-8.14.223-11.242-1.472-4.244-6.911-7.314-8.662-8.143-.078-11.18-1.886-3.985-7.063-6.988-8.927-8.135-.378-11.1-2.3-3.722-7.207-6.655-9.18-8.113-.679-11.01-2.706-3.453-7.338-6.311-9.419-8.083-.977-10.9-3.109-3.18-7.46-5.96-9.644-8.041-1.274-10.781-3.509-2.9-7.573-5.6-9.858-7.989-1.568-10.645-3.9-2.623-7.673-5.235-10.056-7.926-1.861-10.495-4.292-2.338-7.764-4.861-10.241-7.853-2.151-10.331-4.674-2.051-7.846-4.482-10.414-7.768-2.437-10.151-5.049-1.762-7.915-4.1-10.571-7.673-2.721-9.958-5.419-1.471-7.976-3.707-10.716-7.567-3-9.752-5.781-1.176-8.023-3.309-10.844-7.452-3.276-9.534-6.137-.879-8.06-2.907-10.958-7.326-3.549-9.3-6.484-.581-8.087-2.5-11.059-7.19-3.815-9.055-6.821-.282-8.1-2.091-11.143-7.044-4.079-8.8-7.152.018-8.108-1.678-11.214-6.888-4.336-8.526-7.473.318-8.1-1.261-11.266-6.723-4.59-8.244-7.785.62-8.083-.841-11.307-6.548-4.834-7.949-8.084.919-8.055-.421-11.33-6.363-5.075-7.643-8.375,1.219-8.015,0-11.338-6.17-5.308-7.325-8.653,1.516-7.962.423-11.329-5.968-5.535-7-8.921,1.811-7.9.844-11.307-5.757-5.751-6.66-9.174,2.1-7.828,1.264-11.267-5.539-5.962-6.314-9.415,2.4-7.744,1.683-11.212-5.313-6.164-5.96-9.646,2.68-7.648,2.1-11.142-5.08-6.355-5.6-9.859,2.962-7.544,2.509-11.056-4.842-6.538-5.229-10.06,3.239-7.429,2.916-10.956-4.6-6.712-4.856-10.245,3.509-7.3,3.316-10.843-4.349-6.876-4.478-10.416,3.774-7.172,3.71-10.715c-.064-3.528-4.1-7.029-4.1-10.573s4.032-7.044,4.1-10.572-3.838-7.187-3.71-10.714,4.285-6.893,4.478-10.416c.193-3.539-3.574-7.322-3.317-10.843s4.534-6.73,4.856-10.246-3.3-7.447-2.915-10.956,4.778-6.558,5.229-10.06-3.025-7.564-2.509-11.056,5.018-6.377,5.6-9.86-2.743-7.671-2.1-11.142,5.251-6.186,5.96-9.645-2.456-7.767-1.683-11.213,5.477-5.986,6.314-9.417-2.165-7.852-1.264-11.267,5.7-5.778,6.661-9.176-1.872-7.927-.844-11.307,5.907-5.561,7-8.92-1.576-7.991-.423-11.331,6.11-5.336,7.326-8.654-1.277-8.043,0-11.337,6.3-5.106,7.643-8.376-.978-8.085.421-11.33,6.49-4.866,7.949-8.084-.676-8.116.842-11.307,6.666-4.622,8.244-7.785-.375-8.134,1.261-11.267,6.832-4.371,8.527-7.473-.074-8.142,1.677-11.213,6.99-4.115,8.8-7.153.228-8.139,2.092-11.143,7.136-3.854,9.055-6.822.529-8.126,2.5-11.059,7.274-3.587,9.3-6.483.827-8.1,2.908-10.959,7.4-3.316,9.533-6.136,1.125-8.065,3.309-10.844,7.518-3.042,9.753-5.782,1.421-8.017,3.706-10.714,7.624-2.764,9.959-5.42,1.715-7.958,4.1-10.571,7.72-2.481,10.151-5.049,2.005-7.891,4.482-10.415,7.806-2.2,10.33-4.673,2.294-7.811,4.863-10.242,7.881-1.907,10.494-4.29,2.579-7.721,5.235-10.056,7.946-1.617,10.645-3.9,2.861-7.621,5.6-9.857,8-1.323,10.781-3.508,3.139-7.511,5.96-9.645,8.043-1.027,10.9-3.108,3.413-7.391,6.311-9.42,8.075-.73,11.011-2.705,3.683-7.259,6.654-9.179,8.1-.432,11.1-2.3,3.948-7.119,6.988-8.928,8.107-.132,11.18-1.884,4.209-6.968,7.314-8.664,8.106.168,11.242-1.469,4.464-6.807,7.63-8.386,8.093.468,11.289-1.052,4.712-6.637,7.936-8.1,8.07.769,11.32-.632,4.955-6.456,8.231-7.8,8.036,1.069,11.335-.21,5.193-6.267,8.516-7.485,7.99,1.367,11.335.212,5.422-6.07,8.789-7.163,7.933,1.664,11.32.634,5.644-5.863,9.049-6.831,7.865,1.959,11.289,1.055,5.857-5.649,9.3-6.488,7.786,2.25,11.241,1.474,6.063-5.427,9.532-6.138,7.7,2.538,11.179,1.891,6.261-5.2,9.754-5.78,7.6,2.822,11.1,2.305,6.448-4.963,9.961-5.416,7.487,3.1,11.008,2.714,6.627-4.721,10.154-5.044,7.368,3.375,10.9,3.117,6.8-4.474,10.334-4.667,7.238,3.642,10.779,3.513S946.811.161,950.354.1,957.456,4,961,4,968.116.033,971.644.1c3.543.064,6.97,4.158,10.5,4.286S989.4.677,992.921.87s6.812,4.41,10.333,4.667,7.385-3.438,10.9-3.117,6.646,4.657,10.155,5.043,7.507-3.164,11.008-2.713,6.469,4.9,9.962,5.415,7.618-2.885,11.1-2.3,6.281,5.135,9.754,5.78,7.718-2.6,11.179-1.891,6.085,5.365,9.532,6.138,7.811-2.312,11.242-1.474,5.883,5.587,9.3,6.488,7.891-2.019,11.29-1.054,5.67,5.8,9.049,6.831,7.96-1.725,11.32-.634,5.45,6.009,8.789,7.163,8.02-1.427,11.337-.211,5.222,6.208,8.515,7.485,8.066-1.127,11.336.211,4.987,6.4,8.232,7.8,8.1-.826,11.32.633,4.745,6.578,7.936,8.1,8.127-.525,11.289,1.052,4.5,6.75,7.63,8.387,8.14-.224,11.242,1.469,4.243,6.913,7.313,8.664,8.143.077,11.181,1.885,3.984,7.064,6.988,8.928,8.135.378,11.1,2.3,3.721,7.206,6.654,9.18,8.113.678,11.009,2.705,3.454,7.34,6.311,9.42,8.084.976,10.9,3.109,3.18,7.46,5.96,9.644,8.042,1.273,10.782,3.509,2.9,7.573,5.6,9.858,7.99,1.568,10.645,3.9,2.623,7.673,5.235,10.057,7.926,1.86,10.495,4.29,2.338,7.765,4.861,10.242,7.852,2.15,10.33,4.674,2.053,7.845,4.482,10.413,7.769,2.437,10.152,5.05,1.763,7.915,4.1,10.571,7.673,2.721,9.958,5.42,1.47,7.974,3.707,10.714,7.567,3,9.752,5.782,1.175,8.023,3.309,10.844,7.452,3.276,9.533,6.136.879,8.061,2.908,10.959,7.326,3.548,9.3,6.483.581,8.088,2.5,11.058,7.19,3.817,9.055,6.823.282,8.1,2.092,11.143,7.044,4.079,8.8,7.153-.018,8.107,1.677,11.212,6.888,4.337,8.526,7.473-.319,8.1,1.26,11.267,6.723,4.589,8.245,7.784-.62,8.084.842,11.307,6.547,4.835,7.948,8.085-.918,8.054.421,11.33,6.364,5.074,7.643,8.374-1.219,8.015,0,11.338,6.17,5.308,7.325,8.654-1.515,7.963-.423,11.329,5.967,5.534,7,8.921-1.811,7.9-.844,11.306,5.756,5.752,6.66,9.175-2.1,7.827-1.264,11.266,5.538,5.962,6.314,9.416-2.394,7.743-1.683,11.212,5.313,6.164,5.959,9.646-2.68,7.648-2.1,11.142,5.081,6.355,5.6,9.858-2.962,7.544-2.51,11.057,4.843,6.538,5.231,10.059-3.24,7.429-2.917,10.957,4.6,6.711,4.855,10.245-3.509,7.3-3.315,10.843,4.349,6.876,4.478,10.417c.128,3.526-3.774,7.171-3.71,10.714C1532.968,568.955,1537,572.456,1537,576Z" transform="translate(-350.5 34.5)" fill="none" stroke="#ff00c4" stroke-miterlimit="10" stroke-width="1"/>
        </g>
        <g class="system__ring_content" data-name="system__ring_content">
        <g class="system__ring" data-name="system__ring" transform="translate(226 226)" fill="none" stroke="#ff00c4" stroke-width="1">
            <circle cx="384" cy="384" r="384" stroke="none"/>
            <circle cx="384" cy="384" r="383.5" fill="none"/>
        </g>
        <g id="system__planet_content">
            <g class="system__bg" data-name="system__bg" transform="translate(604 219)" fill="none" stroke="#06f" stroke-width="1">
            <rect width="14" height="14" stroke="none"/>
            <rect x="0.5" y="0.5" width="13" height="13" fill="none"/>
            </g>
            <circle id="system__planet" cx="6" cy="6" r="6" transform="translate(605 220)" fill="red"/>
        </g>
        </g>
        <g class="system__ring_content" data-name="system__ring_content">
        <g class="system__ring" data-name="system__ring" transform="translate(398 398)" fill="none" stroke="#ff00c4" stroke-width="1">
            <circle cx="212" cy="212" r="212" stroke="none"/>
            <circle cx="212" cy="212" r="211.5" fill="none"/>
        </g>
        <g class="system__planet_content" data-name="system__planet_content">
            <g class="system__bg" data-name="system__bg" transform="translate(571 359)" fill="none" stroke="#06f" stroke-width="1">
            <rect width="80" height="80" stroke="none"/>
            <rect x="0.5" y="0.5" width="79" height="79" fill="none"/>
            </g>
            <g class="system__ring_content" data-name="system__ring_content">
            <circle id="system__moon" cx="1.5" cy="1.5" r="1.5" transform="translate(590 367)" fill="#ffdf00"/>
            <circle class="system__moon" data-name="system__moon" cx="1.5" cy="1.5" r="1.5" transform="translate(636 384)" fill="#ffdf00"/>
            <circle class="system__moon" data-name="system__moon" cx="2" cy="2" r="2" transform="translate(589 415)" fill="#ffdf00"/>
            <circle class="system__moon" data-name="system__moon" cx="3" cy="3" r="3" transform="translate(637 407)" fill="#ffdf00"/>
            <circle class="system__moon" data-name="system__moon" cx="3.5" cy="3.5" r="3.5" transform="translate(623 371)" fill="#ffdf00"/>
            <circle class="system__moon" data-name="system__moon" cx="6" cy="6" r="6" transform="translate(572 385)" fill="#ffdf00"/>
            <circle class="system__planet" data-name="system__planet" cx="21.5" cy="21.5" r="21.5" transform="translate(589 377)" fill="red"/>
            </g>
        </g>
        </g>
        <g class="system__ring_content" data-name="system__ring_content">
        <g class="system__ring" data-name="system__ring" transform="translate(485 485)" fill="none" stroke="#ff00c4" stroke-width="1">
            <circle cx="125" cy="125" r="125" stroke="none"/>
            <circle cx="125" cy="125" r="124.5" fill="none"/>
        </g>
        <g class="system__planet_content" data-name="system__planet_content">
            <g class="system__bg" data-name="system__bg" transform="translate(593 468)" fill="none" stroke="#06f" stroke-width="1">
            <rect width="36" height="36" stroke="none"/>
            <rect x="0.5" y="0.5" width="35" height="35" fill="none"/>
            </g>
            <g class="system__ring_content" data-name="system__ring_content">
            <g class="system__ring" data-name="system__ring" transform="translate(594 469)" fill="none" stroke="#ff00c4" stroke-width="1">
                <circle cx="17" cy="17" r="17" stroke="none"/>
                <circle cx="17" cy="17" r="16.5" fill="none"/>
            </g>
            <circle class="system__moon" data-name="system__moon" cx="3" cy="3" r="3" transform="translate(596 471)" fill="#ffdf00"/>
            </g>
            <circle class="system__planet" data-name="system__planet" cx="10" cy="10" r="10" transform="translate(601 476)" fill="red"/>
        </g>
        </g>
        <circle class="system__sun" cx="27.5" cy="27.5" r="27.5" transform="translate(583 583)" fill="#1f0"/>
    </g>
    </svg>