<svg id="scadrian_system" xmlns="http://www.w3.org/2000/svg" width="1220" height="1220" viewBox="0 0 1220 1220">
  <g class="system__rings_content">
      <rect class="system__bg" width="1220" height="1220" fill="none"/>
      <g class="system__ring_content">
      <g class="system__ring" transform="translate(6 6)" fill="none" stroke="#ff00c4" stroke-width="1">
          <circle cx="604" cy="604" r="604" stroke="none"/>
          <circle cx="604" cy="604" r="603.5" fill="none"/>
      </g>
      <g class="system__planet_content">
          <circle class="system__planet" cx="4" cy="4" r="4" transform="translate(606 2)" fill="red"/>
          <g class="system__bg" data-name="system__bg" transform="translate(605 1)" fill="none" stroke="#06f" stroke-width="1">
          <rect width="10" height="10" stroke="none"/>
          <rect x="0.5" y="0.5" width="9" height="9" fill="none"/>
          </g>
      </g>
      </g>
      <g class="system__ring_content" data-name="system__ring_content">
      <g class="system__ring" data-name="system__ring" transform="translate(58 58)" fill="none" stroke="#ff00c4" stroke-width="1">
          <circle cx="552" cy="552" r="552" stroke="none"/>
          <circle cx="552" cy="552" r="551.5" fill="none"/>
      </g>
      <g class="system__planet_content" data-name="system__planet_content">
          <g class="system__bg" data-name="system__bg" transform="translate(604 52)" fill="none" stroke="#06f" stroke-width="1">
          <rect width="12" height="12" stroke="none"/>
          <rect x="0.5" y="0.5" width="11" height="11" fill="none"/>
          </g>
          <circle class="system__planet" data-name="system__planet" cx="5" cy="5" r="5" transform="translate(605 53)" fill="red"/>
      </g>
      </g>
      <g class="system__ring_content" data-name="system__ring_content">
      <path class="system__ring comet_belt" data-name="system__ring" d="M2062.692,2585.055c0,3.3-4.031,6.563-4.093,9.852-.064,3.3,3.841,6.714,3.716,10s-4.279,6.406-4.468,9.691,3.582,6.855,3.331,10.136-4.523,6.236-4.837,9.512,3.315,6.987,2.936,10.257-4.757,6.055-5.2,9.317,3.041,7.112,2.537,10.365-4.99,5.865-5.557,9.107,2.761,7.224,2.131,10.454-5.215,5.666-5.91,8.887,2.48,7.325,1.723,10.529-5.432,5.457-6.251,8.646,2.191,7.418,1.309,10.59-5.639,5.242-6.582,8.4,1.9,7.495.894,10.632-5.841,5.015-6.907,8.133,1.6,7.563.478,10.657-6.031,4.785-7.218,7.857,1.309,7.62.062,10.669-6.215,4.544-7.521,7.569,1.01,7.665-.354,10.664-6.388,4.3-7.81,7.268.711,7.7-.77,10.643-6.549,4.045-8.087,6.959.411,7.719-1.184,10.6-6.7,3.786-8.351,6.64.111,7.73-1.595,10.55-6.842,3.524-8.6,6.31-.19,7.729-2,10.481-6.974,3.256-8.841,5.972-.487,7.715-2.405,10.4-7.1,2.984-9.066,5.627-.785,7.689-2.8,10.294-7.206,2.707-9.277,5.271-1.081,7.654-3.2,10.177-7.3,2.428-9.473,4.911-1.375,7.607-3.59,10.047-7.392,2.143-9.656,4.541-1.666,7.547-3.975,9.9-7.468,1.858-9.823,4.166-1.956,7.479-4.354,9.741-7.535,1.568-9.976,3.785-2.243,7.4-4.726,9.564-7.589,1.278-10.114,3.4-2.527,7.3-5.092,9.376-7.633.982-10.239,3.005-2.806,7.2-5.45,9.171-7.664.687-10.345,2.607-3.083,7.087-5.8,8.954-7.686.39-10.44,2.2-3.354,6.963-6.143,8.724-7.695.091-10.517,1.8-3.621,6.827-6.475,8.479-7.693-.208-10.58,1.389-3.883,6.68-6.8,8.219-7.676-.506-10.623.978-4.141,6.524-7.118,7.949-7.651-.8-10.654.562-4.391,6.358-7.42,7.667-7.613-1.1-10.668.146-4.634,6.182-7.714,7.371-7.564-1.4-10.665-.271-4.872,6-7.995,7.065-7.5-1.694-10.647-.688-5.1,5.8-8.266,6.747-7.431-1.986-10.612-1.1-5.325,5.6-8.523,6.418-7.347-2.274-10.56-1.516-5.539,5.384-8.767,6.081-7.253-2.561-10.494-1.928-5.746,5.164-9,5.733-7.146-2.84-10.41-2.335-5.94,4.938-9.214,5.381-7.031-3.117-10.312-2.738-6.127,4.7-9.415,5.019-6.906-3.386-10.2-3.133-6.3,4.463-9.6,4.652-6.77-3.649-10.071-3.524-6.47,4.218-9.775,4.281c-3.289.062-6.625-3.906-9.93-3.906s-6.639,3.968-9.928,3.906c-3.3-.063-6.486-4.156-9.774-4.281s-6.786,3.713-10.071,3.524-6.321-4.4-9.6-4.652-6.922,3.448-10.2,3.133-6.146-4.64-9.416-5.017-7.051,3.178-10.312,2.736-5.961-4.875-9.214-5.38-7.168,2.9-10.411,2.335-5.768-5.1-9-5.733-7.276,2.622-10.494,1.928-5.563-5.325-8.768-6.081-7.372,2.336-10.562,1.515-5.35-5.536-8.524-6.418-7.456,2.046-10.612,1.1-5.129-5.741-8.266-6.747-7.531,1.754-10.647.687-4.9-5.937-7.995-7.064-7.594,1.457-10.667.269-4.664-6.123-7.712-7.371-7.646,1.16-10.67-.146-4.421-6.3-7.42-7.667-7.684.861-10.656-.563-4.172-6.469-7.116-7.95-7.71.562-10.624-.975-3.917-6.627-6.8-8.222-7.727.261-10.579-1.389-3.656-6.773-6.476-8.478-7.732-.039-10.518-1.8-3.39-6.91-6.142-8.724-7.723-.338-10.44-2.2-3.121-7.036-5.8-8.955-7.7-.637-10.345-2.606-2.846-7.152-5.451-9.173-7.673-.934-10.238-3-2.567-7.255-5.092-9.376-7.63-1.229-10.113-3.4-2.286-7.349-4.726-9.565-7.58-1.521-9.977-3.784-2-7.432-4.354-9.74-7.514-1.813-9.823-4.166-1.713-7.5-3.975-9.9-7.438-2.1-9.655-4.542-1.422-7.562-3.591-10.046-7.351-2.385-9.472-4.911-1.13-7.612-3.2-10.178-7.254-2.666-9.276-5.271-.834-7.65-2.8-10.295-7.146-2.944-9.066-5.626-.538-7.676-2.405-10.4-7.026-3.218-8.841-5.972-.24-7.692-2-10.481-6.9-3.487-8.6-6.309.059-7.7-1.593-10.551-6.755-3.752-8.352-6.64.357-7.685-1.183-10.6-6.6-4.014-8.086-6.959.655-7.667-.77-10.643-6.442-4.265-7.809-7.268.954-7.635-.355-10.664-6.272-4.514-7.521-7.569,1.252-7.591.062-10.669-6.089-4.754-7.217-7.855,1.546-7.536.478-10.658-5.9-4.99-6.906-8.133,1.84-7.469.894-10.631-5.7-5.216-6.583-8.4,2.131-7.39,1.31-10.587-5.491-5.434-6.25-8.647,2.418-7.3,1.721-10.529-5.275-5.645-5.908-8.885,2.7-7.2,2.132-10.454-5.052-5.845-5.557-9.107,2.979-7.092,2.536-10.365-4.82-6.035-5.2-9.316,3.253-6.969,2.937-10.258-4.584-6.217-4.836-9.51,3.519-6.839,3.33-10.136-4.341-6.389-4.468-9.69,3.78-6.7,3.716-10-4.094-6.55-4.094-9.854,4.032-6.564,4.094-9.853c.064-3.3-3.841-6.714-3.716-10s4.279-6.4,4.467-9.689-3.581-6.856-3.33-10.137,4.522-6.234,4.837-9.512-3.315-6.987-2.937-10.257,4.758-6.055,5.2-9.317-3.041-7.111-2.536-10.363,4.989-5.866,5.557-9.109-2.763-7.223-2.132-10.454,5.215-5.668,5.909-8.886-2.479-7.326-1.722-10.531,5.432-5.458,6.251-8.647-2.192-7.416-1.31-10.589,5.64-5.241,6.583-8.4-1.9-7.5-.894-10.633,5.84-5.016,6.907-8.132-1.605-7.564-.479-10.659,6.032-4.784,7.219-7.856-1.309-7.62-.062-10.669,6.215-4.545,7.52-7.569-1.011-7.664.355-10.664,6.387-4.3,7.81-7.269-.711-7.7.77-10.641,6.549-4.046,8.087-6.961-.411-7.72,1.184-10.6,6.7-3.787,8.352-6.64-.111-7.73,1.594-10.549,6.843-3.526,8.6-6.311.187-7.728,2-10.48,6.975-3.257,8.842-5.973.486-7.715,2.406-10.394,7.1-2.985,9.066-5.627.784-7.691,2.805-10.294,7.2-2.707,9.276-5.272,1.081-7.655,3.2-10.178,7.3-2.427,9.472-4.91,1.374-7.606,3.591-10.047,7.391-2.143,9.655-4.541,1.666-7.547,3.976-9.9,7.468-1.857,9.822-4.166,1.956-7.477,4.354-9.74,7.534-1.568,9.975-3.783,2.244-7.4,4.728-9.567,7.589-1.275,10.114-3.4,2.527-7.3,5.092-9.376,7.633-.982,10.238-3,2.807-7.2,5.451-9.172,7.664-.687,10.345-2.606,3.083-7.087,5.8-8.956,7.686-.388,10.439-2.2,3.354-6.962,6.143-8.723,7.694-.091,10.517-1.8,3.621-6.825,6.476-8.478,7.692.207,10.578-1.388,3.884-6.681,6.8-8.221,7.678.506,10.625-.977,4.14-6.524,7.115-7.95,7.653.806,10.656-.561,4.389-6.359,7.419-7.667,7.614,1.1,10.668-.146,4.635-6.183,7.713-7.371,7.566,1.4,10.666.27,4.872-6,8-7.065,7.5,1.7,10.647.688,5.1-5.8,8.266-6.747,7.43,1.986,10.611,1.1,5.326-5.6,8.523-6.419,7.348,2.277,10.561,1.518,5.539-5.385,8.767-6.08,7.254,2.56,10.495,1.927,5.745-5.165,9-5.734,7.146,2.841,10.409,2.335,5.941-4.937,9.214-5.38,7.031,3.117,10.312,2.736,6.128-4.7,9.415-5.017,6.907,3.386,10.2,3.134,6.3-4.463,9.6-4.653,6.768,3.65,10.07,3.525,6.471-4.219,9.775-4.282,6.625,3.907,9.929,3.907,6.64-3.969,9.929-3.907c3.3.064,6.485,4.157,9.774,4.282s6.786-3.712,10.071-3.524,6.321,4.4,9.6,4.653,6.923-3.45,10.2-3.135,6.146,4.641,9.416,5.019,7.05-3.179,10.312-2.738,5.961,4.876,9.214,5.381,7.168-2.9,10.411-2.335,5.767,5.1,9,5.733,7.277-2.621,10.495-1.926,5.564,5.324,8.769,6.08,7.371-2.335,10.56-1.517,5.351,5.537,8.524,6.419,7.457-2.046,10.613-1.1,5.129,5.742,8.266,6.746,7.531-1.754,10.647-.688,4.9,5.938,7.995,7.064,7.594-1.456,10.667-.269,4.664,6.123,7.714,7.371,7.644-1.16,10.668.147,4.422,6.3,7.42,7.667,7.685-.862,10.655.562,4.173,6.47,7.117,7.95,7.71-.561,10.624.977,3.918,6.626,6.8,8.22,7.728-.261,10.579,1.389,3.657,6.774,6.477,8.479,7.731.039,10.518,1.8,3.39,6.91,6.142,8.724,7.723.338,10.44,2.2,3.121,7.036,5.8,8.955,7.7.636,10.346,2.607,2.847,7.151,5.45,9.173,7.674.932,10.239,3,2.567,7.254,5.091,9.376,7.631,1.228,10.115,3.4,2.285,7.349,4.726,9.565,7.578,1.521,9.977,3.785,2,7.431,4.353,9.74,7.514,1.812,9.823,4.166,1.712,7.5,3.976,9.9,7.438,2.1,9.653,4.542,1.423,7.562,3.591,10.046,7.352,2.385,9.473,4.91,1.129,7.613,3.2,10.177,7.254,2.668,9.275,5.273.834,7.651,2.806,10.294,7.146,2.945,9.066,5.626.538,7.677,2.406,10.4,7.025,3.219,8.841,5.974.239,7.69,2,10.479,6.9,3.488,8.6,6.311-.057,7.695,1.594,10.548,6.755,3.754,8.351,6.641-.356,7.686,1.184,10.6,6.6,4.013,8.087,6.961-.656,7.665.768,10.64,6.444,4.266,7.811,7.269-.954,7.633.354,10.663,6.272,4.514,7.521,7.569-1.252,7.591-.062,10.669,6.088,4.754,7.218,7.856-1.548,7.536-.479,10.659,5.9,4.988,6.907,8.131-1.84,7.469-.9,10.631,5.7,5.217,6.584,8.4-2.132,7.391-1.311,10.59,5.492,5.432,6.251,8.645-2.419,7.3-1.723,10.53,5.276,5.643,5.909,8.883-2.7,7.2-2.131,10.455,5.05,5.844,5.557,9.108-2.98,7.09-2.537,10.363,4.82,6.035,5.2,9.315-3.252,6.97-2.935,10.258,4.583,6.218,4.836,9.511-3.52,6.839-3.331,10.138,4.341,6.387,4.468,9.689-3.78,6.7-3.716,10S2062.692,2581.75,2062.692,2585.055Z" transform="translate(-940.692 -1975.054)" fill="none" stroke="#ff00c4" stroke-miterlimit="10" stroke-width="1"/>
      </g>
      <g class="system__ring_content" data-name="system__ring_content">
      <g class="system__ring" data-name="system__ring" transform="translate(123 123)" fill="none" stroke="#ff00c4" stroke-width="1">
          <circle cx="487" cy="487" r="487" stroke="none"/>
          <circle cx="487" cy="487" r="486.5" fill="none"/>
      </g>
      <g class="system__planet_content" data-name="system__planet_content">
          <g class="system__bg" data-name="system__bg" transform="translate(592 106)" fill="none" stroke="#06f" stroke-width="1">
          <rect width="36" height="36" stroke="none"/>
          <rect x="0.5" y="0.5" width="35" height="35" fill="none"/>
          </g>
          <circle class="system__moon" cx="1" cy="1" r="1" transform="translate(603 139)" fill="#ffdf00"/>
          <circle class="system__moon" data-name="system__moon" cx="1" cy="1" r="1" transform="translate(595 128)" fill="#ffdf00"/>
          <circle class="system__moon" data-name="system__moon" cx="1.5" cy="1.5" r="1.5" transform="translate(623 124)" fill="#ffdf00"/>
          <circle class="system__moon" data-name="system__moon" cx="1.5" cy="1.5" r="1.5" transform="translate(615 111)" fill="#ffdf00"/>
          <circle class="system__moon" data-name="system__moon" cx="1.5" cy="1.5" r="1.5" transform="translate(597 118)" fill="#ffdf00"/>
          <g class="system__planet_ring" transform="translate(608 108)" fill="none" stroke="red" stroke-width="1">
          <ellipse cx="3" cy="16" rx="3" ry="16" stroke="none"/>
          <ellipse cx="3" cy="16" rx="2.5" ry="15.5" fill="none"/>
          </g>
          <circle class="system__planet" data-name="system__planet" cx="9" cy="9" r="9" transform="translate(601 115)" fill="red"/>
      </g>
      </g>
      <g class="system__ring_content" data-name="system__ring_content">
      <g class="system__ring" data-name="system__ring" transform="translate(169 169)" fill="none" stroke="#ff00c4" stroke-width="1">
          <circle cx="441" cy="441" r="441" stroke="none"/>
          <circle cx="441" cy="441" r="440.5" fill="none"/>
      </g>
      <g class="system__planet_content" data-name="system__planet_content">
          <g class="system__bg" data-name="system__bg" transform="translate(585 146)" fill="none" stroke="#06f" stroke-width="1">
          <rect width="50" height="50" stroke="none"/>
          <rect x="0.5" y="0.5" width="49" height="49" fill="none"/>
          </g>
          <circle class="system__moon" data-name="system__moon" cx="3" cy="3" r="3" transform="translate(626 179)" fill="#ffdf00"/>
          <circle class="system__moon" data-name="system__moon" cx="2" cy="2" r="2" transform="translate(608 191)" fill="#ffdf00"/>
          <circle class="system__moon" data-name="system__moon" cx="2" cy="2" r="2" transform="translate(594 157)" fill="#ffdf00"/>
          <circle class="system__moon" data-name="system__moon" cx="2" cy="2" r="2" transform="translate(627 160)" fill="#ffdf00"/>
          <circle class="system__moon" data-name="system__moon" cx="2.5" cy="2.5" r="2.5" transform="translate(590 179)" fill="#ffdf00"/>
          <circle class="system__moon" data-name="system__moon" cx="1" cy="1" r="1" transform="translate(614 151)" fill="#ffdf00"/>
          <circle class="system__planet" data-name="system__planet" cx="14" cy="14" r="14" transform="translate(596 157)" fill="red"/>
      </g>
      </g>
      <g class="system__ring_content" data-name="system__ring_content">
      <g class="system__ring" data-name="system__ring" transform="translate(353 353)" fill="none" stroke="#ff00c4" stroke-width="1">
          <circle cx="257" cy="257" r="257" stroke="none"/>
          <circle cx="257" cy="257" r="256.5" fill="none"/>
      </g>
      <g class="system__planet_content" data-name="system__planet_content">
          <g class="system__bg" data-name="system__bg" transform="translate(600 344)" fill="none" stroke="#06f" stroke-width="1">
          <rect width="20" height="20" stroke="none"/>
          <rect x="0.5" y="0.5" width="19" height="19" fill="none"/>
          </g>
          <circle class="system__planet" data-name="system__planet" cx="9" cy="9" r="9" transform="translate(601 345)" fill="red"/>
      </g>
      </g>
      <g class="system__ring_content" data-name="system__ring_content">
      <g class="system__ring" data-name="system__ring" transform="translate(455 455)" fill="none" stroke="#ff00c4" stroke-width="1" stroke-dasharray="1">
          <circle cx="155" cy="155" r="155" stroke="none"/>
          <circle cx="155" cy="155" r="154.5" fill="none"/>
      </g>
      <g class="system__planet_content" data-name="system__planet_content">
          <g class="system__planet system__unplanet" data-name="system__planet" transform="translate(601 447)" fill="#1b1d21" stroke="red" stroke-width="1" stroke-dasharray="1">
          <circle cx="9" cy="9" r="9" stroke="none"/>
          <circle cx="9" cy="9" r="8.5" fill="none"/>
          </g>
          <g class="system__bg" data-name="system__bg" transform="translate(600 446)" fill="none" stroke="#06f" stroke-width="1">
          <rect width="20" height="20" stroke="none"/>
          <rect x="0.5" y="0.5" width="19" height="19" fill="none"/>
          </g>
      </g>
      </g>
      <circle class="system__sun" cx="23.5" cy="23.5" r="23.5" transform="translate(587 587)" fill="#1f0"/>
  </g>
</svg>