<svg xmlns="http://www.w3.org/2000/svg" width="320" height="320" viewBox="0 0 320 320">
  <g id="drominad_logo" transform="translate(-1172.706 -127.706)">
    <g id="bg" transform="translate(1172.706 127.706)" fill="#fff" stroke="#707070" stroke-width="1" opacity="0">
      <rect width="320" height="320" stroke="none"/>
      <rect x="0.5" y="0.5" width="319" height="319" fill="none"/>
    </g>
    <g id="drominad">
      <path id="Trazado_6580" data-name="Trazado 6580" d="M2919.449,1783.083c-2.487,35.74-14.117,66.232-46.36,85.8,24.721-2.562,48.416-7.646,69.1-25.073-.437,2.908-.56,4.714-.993,6.442-4.591,18.261-14.243,33.737-26.548,47.694-11.3,12.814-24.524,23.352-38.922,32.468a31.35,31.35,0,0,0-4.888,3.545c10.44,1.34,20.707-.122,30.908-1.86a113.509,113.509,0,0,0,30.908-9.973c-.933,3.429-1.415,5.815-2.228,8.083-3.278,9.156-8.349,17.336-14.061,25.134-13.817,18.868-30.77,34.655-48.825,49.327-6.348,5.159-12.881,10.089-20.431,15.984,13.087,1.012,24.484-1.633,36.582-4.936a34,34,0,0,1-1.916,3.352c-27.867,36.373-62.661,63.125-106.849,76.777-22.313,6.893-45.192,8.2-68.324,6.643-5.812-.391-6.255-.752-9.319-4.214,2.2-.731,4.127-1.394,6.066-2.013,48.494-15.482,84.543-45.734,107.563-91.177,9.464-18.684,15.054-38.538,15.048-59.643,0-10.978-1.9-21.674-7.111-31.542-6.819-12.911-17.457-20.55-31.948-22.324a28.2,28.2,0,0,0-11.584.875c-14.824,4.679-23.6,16.175-31.316,28.832a81.082,81.082,0,0,1,24.652-8.972c-.185.661-.178,1.16-.422,1.432-9.968,11.083-16.271,24.218-21.25,38.07-6.483,18.036-10.41,36.678-12.9,55.647-.109.84-.25,1.676-.564,3.751-1.926-2.265-3.352-3.707-4.506-5.34-7.511-10.623-12.295-22.512-15.763-34.943-7.236-25.94-8.62-52.058-1.124-78.167,8.883-30.938,28.673-52.864,56.953-67.545a171.785,171.785,0,0,1,45.9-15.687c12.792-2.55,24.015-7.784,33.125-17.252a18.051,18.051,0,0,1,2.326-1.595c1.533,11.5-4.147,19.592-9.927,27.92C2870,1813.826,2896.57,1802.833,2919.449,1783.083Z" transform="translate(-1487.035 -1655.377)" fill="#ccad6c" fill-rule="evenodd"/>
    </g>
  </g>
</svg>
