<svg xmlns="http://www.w3.org/2000/svg" width="320" height="320" viewBox="0 0 320 320">
  <g id="nalthian_logo" transform="translate(-1172.705 -127.706)">
    <g id="bg" transform="translate(1172.706 127.706)" fill="#fff" stroke="#707070" stroke-width="1" opacity="0">
      <rect width="320" height="320" stroke="none"/>
      <rect x="0.5" y="0.5" width="319" height="319" fill="none"/>
    </g>
    <g id="nalthian" transform="translate(2391.177 -419.1)">
      <path id="Trazado_6638" data-name="Trazado 6638" d="M-1053.023,546.885A160.14,160.14,0,0,0-1218.446,709.77c1.511,85.648,71.686,157.376,160.343,156.918,87.2.173,158.822-70.422,159.625-158.081C-897.648,618.043-969.74,549.445-1053.023,546.885Zm7.454,300.967c-82.215,7.049-146.749-54.953-153.775-126.593-8.1-82.639,56.026-154.152,137.727-155.818,72.512-2.076,137.7,53.549,144.216,128.8C-910.229,777.14-973.518,841.67-1045.568,847.851Z" transform="translate(0 0)" fill="#ccad6c" fill-rule="evenodd"/>
      <path id="Trazado_6639" data-name="Trazado 6639" d="M-904.508,688.866c-4.138.453-7.664,2.5-11.074,4.614-4.885,3.041-10.109,3.252-15.474,2.272-6.8-1.241-13.524-1.614-20.288.219-1.395.378-2.8,1.241-4.618.779a7.454,7.454,0,0,1,2.64-2.4c3.611-2.416,7.72-3.531,11.844-4.613.583-.15,1.465-.01,1.483-.794.023-1.077-1-.7-1.6-.783a40.108,40.108,0,0,0-21.193,2.836c-7.417,3.158-13.715,8.093-20.083,12.9-2.724,2.057-5.346,4.25-8.448,6.732.471-1.292.714-2.015.994-2.729A61.56,61.56,0,0,0-986,687.537c.084-2.16-.835-2.425-2.519-1.768-1.586.62-3.2,1.217-4.717,1.983-2.659,1.334-5.257,2.789-8.051,4.287a5.409,5.409,0,0,1,0-.952,51.974,51.974,0,0,0,2.17-15.6c-.023-.718.411-1.782-.508-2.075-1.026-.327-1.026.891-1.469,1.45-1.012,1.274-1.339,3.083-3.224,4.156.168-2.16.849-3.9.98-5.752.69-9.876-1.334-19.261-4.782-28.437-3.853-10.253-8.252-20.218-14.951-28.992-4.077-5.337-4.2-8.583-.518-14.363.308-.485.667-.97.121-1.423-.438-.364-.868.027-1.232.313a14.724,14.724,0,0,0-4.768,5.6c-1.777,4.072-1.329,8.27-.308,12.343,1.516,6.069,1.19,11.756-1.987,17.264a44.81,44.81,0,0,0-6.368,19.971c-.084,1.479-.191,2.958-.289,4.432-2.02-2.729-2.51-5.761-2.7-8.826a28.162,28.162,0,0,1,.266-6.974c.1-.532.453-1.372-.411-1.586-.751-.187-.98.6-1.3,1.114a5.178,5.178,0,0,0-.322.615,42.178,42.178,0,0,0-3.242,22.289c.928,7.907,3.989,15.217,6.787,22.583,1.134,2.985,2.356,5.938,3.592,9.055-1.1-.042-1.4-.662-1.843-1.055a57.938,57.938,0,0,0-19.047-11.335c-2.146-.784-2.846-.42-2.654,1.558a61.469,61.469,0,0,0,1.031,8.994c.42,1.689.723,3.406,1.092,5.169-1.185.061-1.726-.709-2.421-1.138a48.75,48.75,0,0,0-13.44-6.153c-.574-.149-1.2-.718-1.637.037-.42.723.331,1.11.751,1.511a13.156,13.156,0,0,1,3.513,4.73,5.052,5.052,0,0,1-.947-.252c-7.711-4.945-16.332-6.4-25.289-6.62a148.094,148.094,0,0,0-18.137.715,84.235,84.235,0,0,0-21.547,4.529c-5.962,2.225-9.7,1.208-13.818-3.643-.373-.443-.732-1.293-1.409-.8-.537.387-.107,1.125.1,1.717,1.931,5.575,6.041,8.322,11.672,9.343,3.727.677,7.576.663,11.2,1.955,4.81,1.712,7.954,5.551,11.438,8.947a36.319,36.319,0,0,0,12.04,8.173c2.1.821,4.184,1.689,6.363,2.575-.793.836-1.609.62-2.365.64a31.985,31.985,0,0,1-13.7-3.173c-.592-.261-1.395-.868-1.88-.093s.406,1.226.9,1.665c6.844,6.12,14.788,10.118,23.945,10.767a139.294,139.294,0,0,0,26.306-.494,7.064,7.064,0,0,1,4.2.187c-7.907,3.876-13.962,9.456-19.215,16-1.031,1.283-1.036,2.183.807,2.626a53.187,53.187,0,0,0,7.487,1.628c2.323.215,4.632.6,7.319.952-.76.625-1.171.961-1.581,1.3a54.817,54.817,0,0,0-10.617,11.047c-.415.611-1.189,1.33-.578,2.052.634.747,1.227-.251,1.805-.48,1.661-.662,3.154-1.829,5.141-1.665-.065.3-.051.481-.135.583a4.146,4.146,0,0,1-.653.653,35.614,35.614,0,0,0-10.039,13.23A110.184,110.184,0,0,0-1092.43,832.5c.033,5.84-2.141,9.852-7.762,11.8-.438.154-1.269.037-1,.906.168.536.737.424,1.2.433a12.393,12.393,0,0,0,9.652-3.779,30.5,30.5,0,0,0,5.71-9.526,18.2,18.2,0,0,1,9.036-9.89c8.173-3.849,15.609-8.63,20.866-16.225.21-.3.471-.35,1.036-.136-1.059,6.2-5.295,10.669-9.064,15.633a4.35,4.35,0,0,0,2.636-.69,38.848,38.848,0,0,0,13.337-11.751c5.593-7.59,7.744-16.607,10.221-25.466.994-3.568,1.81-7.184,2.822-11.242.322.854.467,1.2.588,1.567a7.745,7.745,0,0,1,.341,1.106,53.077,53.077,0,0,0,8.7,20.33c1.246,1.838,1.749,1.884,2.958.056a54.142,54.142,0,0,0,5.248-9.553c.406-1.017.369-2.762,1.665-2.752.84.009.831,1.754,1.251,2.7a54.893,54.893,0,0,0,6.993,12.269c.322.4.639,1.058,1.26.844.826-.285.424-1.04.373-1.609-.126-1.386-.331-2.766-.448-4.156-.037-.434-.093-1.041.48-1.176.611-.149.7.424.863.854a34,34,0,0,0,7.706,11.775,105.738,105.738,0,0,0,41.77,26.146c6.363,2.174,11.252,4.885,11.093,12.494,0,.377.051.834.574.843.5.005.536-.452.653-.811a13.644,13.644,0,0,0-.625-11.032c-1.9-3.6-5.15-5.986-7.94-8.762a20.12,20.12,0,0,1-6.083-11.742c-.9-6.293-1.847-12.609-5.178-18.221-1.413-2.38-2.855-4.739-4.282-7.109.1-.079.2-.159.3-.243.336.187.686.355,1.012.555,4.5,2.771,7.469,6.919,10.2,11.289.3.485.476,1.395,1.236,1.148.98-.318.387-1.134.275-1.782a38.443,38.443,0,0,0-10.515-20.563c-7.03-7.268-15.758-12.264-24.2-17.628-.966-.616-2.2-.937-2.822-2.3,7.93,1.3,15.539.466,23.073-1.227,3.914-.881,4.012-1.343,1.469-4.469-.392-.485-.849-.914-1.232-1.4-2.276-2.9-5.145-5.225-8.266-8.014,1.288-.079,2.029-.14,2.771-.167a51.957,51.957,0,0,0,13.93-2.464c.755-.242,2.2-.238,2.043-1.427-.135-1-1.4-.625-2.2-.807-1.647-.378-3.494-.341-4.7-2.02,2.1-.238,4.054-.308,5.943-.7,7.571-1.573,14.261-5.113,20.484-9.567,11.047-7.9,21.1-16.827,28.9-28.1,2.636-3.811,7.478-5.892,11.812-3.956a2.034,2.034,0,0,0,2.547-.159C-896.866,689.883-900.347,688.409-904.508,688.866Zm-97.9,10.926a51.821,51.821,0,0,1,8.639-5.845c.448-.243.952-.686,1.469-.2.392.359.163.867.079,1.32-2.281,12.329-7.93,22.69-17.857,30.54a6.32,6.32,0,0,1-1.241.593c-.019-.8.508-1.194,1.068-1.665a40.4,40.4,0,0,0,7.93-8.766,5.36,5.36,0,0,0,1.092-3.484c-1.223.168-1.269,1.679-2.8,1.824,2.584-5.067,2.02-11.294,7.441-14.988v-.033a2.445,2.445,0,0,0-3.186.107,16.147,16.147,0,0,0-6.05,7.706c-1.274,3.036-2.491,6.19-5.29,8.294-1.068-.508.387-1.558-.616-1.987-1.6.206-1.535,2.65-3.368,2.608C-1012.286,709.349-1007.71,704.284-1002.411,699.791Zm-50.559-5.975c1.274-.845,2.766.83,4.021,1.614a50.7,50.7,0,0,1,16.159,15.726,27.914,27.914,0,0,1,5.626,12.479c-1.889-2.562-2.608-5.71-4.231-8.407-.634-1.05-1.222-2.127-1.833-3.186-.774-.854-1.521-1.731-2.342-2.538-.527-.517-1.012-1.446-1.889-1.077-1.143.48.858,1.255-.252,2.034-3.415-3.573-8.817-5.034-10.926-10.165-.125-.3-.564-.7-.825-.685-.625.046-.522.662-.518,1.1a10.317,10.317,0,0,0,3.074,7.277c2.337,2.37,4.754,4.66,7.1,7.025a4.33,4.33,0,0,1,1.479,3.023c-.863.472-1.04-.648-1.773-.466a7.8,7.8,0,0,0,.956,2.463c.714,1.18,2.076,2.057,1.843,3.713-7.93-6.9-12.726-15.651-15.142-25.8-.019-.075-.028-.154-.042-.229C-1052.726,696.367-1053.991,694.5-1052.969,693.816Zm-17.158,58.19c-.578-.052-1.32-.028-1.609-.71-.233-.536.294-.83.611-1.124a51.781,51.781,0,0,1,23.185-12.992,3.2,3.2,0,0,1,.7-.028c1.161.975-.308.8-.467.844-1.936.49-3.886.919-5.491,2.771.919.14,1.619.243,3.014.448-4.768,2.733-7.912,7.035-13.3,7.744-.476.061-1.246-.233-1.246.6,0,.569.542.9,1.087,1.077,3.2,1.087,6.032-.125,8.868-1.408,3.018-1.362,5.547-3.727,8.938-4.324.532-.093,1.171-.453,1.531.009.56.723-.9.737-.639,1.549,1.945.107,3.718-.644,5.537-1.232.961-.308,1.843-1.246,3-.574C-1046.667,751.6-1058.124,753.061-1070.127,752.006Zm47.363,35.271a44.087,44.087,0,0,1-4.343-10.892,50.838,50.838,0,0,1-.989-22.327,3.384,3.384,0,0,1,.928-2.047c.2,3.34-.835,6.605-.555,9.959a17.193,17.193,0,0,0,.816,4.026c1.068-.63.364-1.609.966-2.3,1.815.9,1.2,2.967,1.833,4.376,1.5,3.345,2.9,6.885,1.726,10.743-.1.346-.177.887.238,1.031.76.266,1.106-.411,1.432-.905,2.239-3.4,1.819-7.114,1.04-10.767a28.69,28.69,0,0,1-1.022-8.271c.051-.667-.163-1.581.69-1.777.77-.177.578.994,1.316,1.307.919-2.427-.308-5.072.784-7.422C-1014.227,764.951-1017.977,780-1022.764,787.277Zm48.963-36.082c-.55,1.539-3,.853-4.632.965-9.712.662-18.977-.882-27.556-5.7a10.935,10.935,0,0,1-3.233-2.23c2.622.056,4.231,2.388,6.657,2.939,2.02.453,3.975,1.18,5.985,1.67.5.121,1.414.4,1.637-.294.238-.756-.555-.947-1.176-1.106-.182-.046-.327-.247-.452-.658,4.968.2,10.039-1.325,14.839,1.217.6.318,1.339.878,1.829.094.392-.63-.425-1.059-.8-1.512-2.72-3.265-6.494-3.942-10.426-4.147a22.264,22.264,0,0,1-7.459-1.451c-.639-.266-1.32-.433-1.7-1.19.48-.2.933-.377,1.4-.573-.149-.219-.2-.4-.308-.443-1.712-.691-3.349-1.6-5.281-1.628-.42,0-1.67-.06-.383-.937h0c10.767.378,19.826,4.922,27.971,11.6C-975.657,748.805-973.339,749.9-973.8,751.195Zm42.031-45.115A98.75,98.75,0,0,1-972.1,730.533c-5.714,1.782-11.653,2.538-17.573,3.3-1.311.167-2.388-.569-3.578-.9a1.12,1.12,0,0,1,.83-.723c5.23-.779,9.792-3.139,14.261-5.826,4.684-2.818,9.423-5.6,15.091-6.022.606-.042,1.46-.056,1.5-1.073a7.92,7.92,0,0,0-3.849-.732c-.49-.014-1.264.247-1.339-.513-.065-.658.658-.732,1.166-.9a37.623,37.623,0,0,1,5.444-1.828c3.835-.644,7.716-.64,11.569-.961a14.537,14.537,0,0,0,8.784-3.765c.4-.359.956-.793.662-1.362-.4-.788-1.008-.15-1.353.1a8.853,8.853,0,0,1-6.018,1.3c-3.009-.177-6.022-.69-9.022-.583-7.193.257-13.673,2.967-19.915,6.363-3.055,1.661-6.181,3.2-9.335,4.67-.9.415-2.36,1.483-2.911.471-.634-1.166,1.124-1.759,1.894-2.557s2.146-.867,2.682-2.117a5.035,5.035,0,0,0-3.275.2,31.221,31.221,0,0,0-6.815,3.872c-2.813,1.889-5.318,4.208-8.453,5.659-.877.406-2.692.634-2.477,1.689.391,1.959-1.05,2.338-1.955,3.242-2.137,1.05-4.268,2.118-6.419,3.14-.662.312-1.936.112-1.857,1,.1,1.171,1.4.368,2.1.7,1.017.788,2.067,1.534,3.046,2.365.91.769.728,1.315-.471,1.352-1.6.057-3.2.024-4.8.033-.452-.121-.984-.275-1.315.112-.453.536.21.774.448,1.115a8.131,8.131,0,0,1,1.474,2.075c1.675,5.635,6.237,8.43,11.168,9.913,7.669,2.3,12.241,7.926,16.742,13.728,10.2,13.142,16.593,28.069,20.18,44.247a5.159,5.159,0,0,1,.117.924,2.214,2.214,0,0,1-.215.592,83.439,83.439,0,0,1-14.149-8.285c-12.81-9.218-23.12-20.6-29.972-34.954a10.254,10.254,0,0,1-1.213-6.256c.215.07.55.07.634.215,3.13,5.393,7.669,9.493,12.273,13.561,3.554,3.144,6.783,6.6,8.481,11.182.163.443.317,1.036.83.975.774-.093.453-.836.522-1.325.233-1.628-.882-3.055-.812-4.955h0a13.871,13.871,0,0,1,3.293,3.522c2.93,4.073,4.236,8.892,6.2,13.4a14.209,14.209,0,0,0,5.393,6.232,1.775,1.775,0,0,0,2.3.168c-1.707-2.085-3.471-4.091-3.988-6.867-1.045-5.57-2.505-10.925-6-15.66-4.278-5.8-9.591-10.566-14.513-15.73-.8-.84-1.544-1.735-2.281-2.631-.266-.331-.765-.69-.369-1.19.378-.471.812-.167,1.246.037a14.063,14.063,0,0,1,3.513,2.226c.317.294.69.784,1.157.318.4-.392.126-.869-.112-1.274a15.725,15.725,0,0,0-3.732-4.422c-4.161-3.349-8.915-5.957-12.5-10.025-.257-.289-.49-.676-.928-.3-1.166,1-2-.21-2.981-.429-1.768-2.323-4.3-3.975-5.808-6.531-.2-.345-.532-.644-.942-.471-.672.289-.312.919-.35,1.409a14.187,14.187,0,0,1-1.931,5.355c-1.446-1.264-1.376-3.139-2.332-4.479a3.352,3.352,0,0,0-.141-2.346c-4.1,4.054-8.284,8.065-8.205,14.167.135,10.883-5.234,19.341-11.485,27.412a97.03,97.03,0,0,1-32.5,26.949c-.681.354-1.461,1.357-2.253.648-.583-.522.089-1.451.209-2.179,3.177-19.658,11.392-36.82,25.266-51.23a12.14,12.14,0,0,1,6.946-3.788c1.283.55.233,1.12-.051,1.562a81.4,81.4,0,0,0-4.474,7.039c-2.794,5.472-4.432,11.57-8.682,16.258-1.171,1.287-2.393,2.537-3.751,3.974,2.043.373,3.28-.658,4.534-1.651.364-.29.788-.644,1.232-.28.518.424.028.872-.182,1.218a33.341,33.341,0,0,1-4.25,5.509c-2.99,3.176-6.82,5.388-9.708,8.677-2.346,2.673-3.214,5.257-2.29,8.35,1.3-4.142,4.25-6.251,7.571-7.828a28.671,28.671,0,0,0,10.645-9.1c3.653-4.847,6.1-10.352,8.924-15.655a29.753,29.753,0,0,1,4.544-6.853,9.178,9.178,0,0,1-1,5.5c-.229.416-.588.9-.177,1.245.616.523.947-.219,1.3-.541a12.361,12.361,0,0,0,2.771-3.983c2.449-5.3,3.107-11.317,6.475-16.253.238-.345.3-.788-.117-1.017-1.432-.779-.541-1.871-.439-2.864,1.707-2.463,2.65-5.393,4.651-7.684.256-.293.452-.685.033-1-.593-.443-.984.149-1.456.327-1.465-.392-2.916.182-4.371.042-.49-.051-1.2,0-1.4-.6-.219-.644.462-.905.84-1.246.844-.765,2.048-1.087,2.668-2.137.7-.065,1.385-.126,2.071-.191a.9.9,0,0,0-.765-1.223,4.594,4.594,0,0,1-2.132-.821c-5-3.48-10.589-3.079-15.828-1.446-5.953,1.852-11.532.6-17.139-.625-16.649-3.639-31.012-11.7-43.515-23.19-1.138-1.05-2.309-2.071-3.391-3.181-.793-.812-.821-1.432.574-1.651a100.755,100.755,0,0,1,27.826-.606,91.418,91.418,0,0,1,30.289,9.064c3.167,1.586,4.884,4.133,6.792,6.722-.149.252-.3.672-.639.49-4.553-2.421-9.563-2.9-14.555-3.466-6.069-.69-12.208-1.138-17.437-4.861a.652.652,0,0,0-1.008.191c-.2.383.056.733.294,1.054,1.2,1.6,2.934,2.575,4.46,3.923a26.612,26.612,0,0,1-5.1-1.106c-4.488-1.423-8.308-4.087-12.185-6.633a14.3,14.3,0,0,0-9.74-2.314c-.532.061-1.185.061-1.274.733-.056.443.438.6.835.629,3.984.252,6.554,2.86,9.167,5.439a29.211,29.211,0,0,0,11.513,6.676c6.647,2.221,13.594,2.916,20.488,3.872a13.032,13.032,0,0,1,5.3,1.834,9.906,9.906,0,0,1-5.952.737c-.5-.1-1.148-.532-1.4.2-.3.844.55,1.058,1.073,1.231a20.446,20.446,0,0,0,6.293,1.507c5.257.07,10.561-.476,15.749.877.555.139,1.194.176,1.283-.561.2-1.59,1.4-1.092,2.318-1.217,2.85,1.124,6.1.583,8.868,2.1a.822.822,0,0,0,.76-.257c.369-1.035-.835-1.092-1.152-1.726.252-1.932-1.423-3.508-1.092-5.561,1.908.341,2.636,2.454,4.483,2.654.163.154.322.318.5.462.476.4.154,1.675,1.2,1.348.984-.308.243-1.176.289-1.8a21.16,21.16,0,0,1,.354-3.223c1.376-5.789-1.25-10.641-4.357-14.872-3.494-4.758-4.4-10.058-4.917-15.483a93.752,93.752,0,0,1,6.186-43.51,79.166,79.166,0,0,1,4.348-9.722c.728-1.311,1.236-1.162,1.833.051a101.947,101.947,0,0,1,10.533,36.307,86.017,86.017,0,0,1-1.642,26.1,12.618,12.618,0,0,1-2.93,5.169,3.521,3.521,0,0,1-.261-2.267,51.158,51.158,0,0,0-.952-12.278c-1.269-6.265-3.391-12.474-1.427-18.991.117-.387.219-1.017-.373-1.185-.564-.154-.714.433-1,.779-1.054,1.232-.63,3.19-2.029,4.339a2.5,2.5,0,0,1-.658-1.791,39.189,39.189,0,0,1,1.292-11.751c.882-3.354,2.253-6.653,1.843-10.226a7.725,7.725,0,0,0-2.645-5.537,12.382,12.382,0,0,1-1.483,9.5c-4.068,6.872-4.147,14.242-3.433,21.795.48,5.165,1.917,10.2,2.08,15.408.037,1.218,1.185,3.215-.2,3.434-1.185.191-1.624-2.127-2.118-3.494a2.157,2.157,0,0,1-.056-.462c-.075-.611-.047-1.511-.788-1.483-1,.037-.574,1.059-.662,1.656-.522,3.592.667,6.947,1.805,10.2a44.835,44.835,0,0,1,2.482,9.856c.075.667.177,2.31.961,1.717,1.39-1.059,1.18.252,1.516.648.91,1.087.611,2.515.947,3.769a17.689,17.689,0,0,1,.77,5.677c-.023.495-.257,1.246.373,1.432.849.247.727-.788,1.148-1.157,0,0,0-.009.009-.009q1.756-1.288,3.508-2.58c.308-.228.611-.578,1.017-.382.536.261.331.783.293,1.226-.13,1.545-1.53,2.72-1.24,4.376-.289.42-1.026.718-.667,1.325.243.415.835.271,1.288.1a22.086,22.086,0,0,1,5.691-1.1,6.949,6.949,0,0,0,3.578-1.534A44.048,44.048,0,0,0-994.9,716.38c1.95-3.116,5.346-3.928,8.332-5.155a101.819,101.819,0,0,1,38.7-7.67,131.125,131.125,0,0,1,15.362.508c.578.066,1.344-.191,1.628.556C-930.575,705.389-931.359,705.674-931.77,706.08Z" transform="translate(-35.568 -28.326)" fill="#ccad6c" fill-rule="evenodd"/>
    </g>
  </g>
</svg>
