<svg xmlns="http://www.w3.org/2000/svg" width="320" height="320" viewBox="0 0 320 320">
  <g id="rosharan_logo" transform="translate(-1172.706 -127.706)">
    <g id="bg" transform="translate(1172.706 127.706)" fill="#fff" stroke="#707070" stroke-width="1" opacity="0">
      <rect width="320" height="320" stroke="none"/>
      <rect x="0.5" y="0.5" width="319" height="319" fill="none"/>
    </g>
    <g id="rosharan" transform="translate(-1458.8 -2725.346)">
      <path id="Trazado_6581" data-name="Trazado 6581" d="M2792.264,3080.808c2.115.782,3.865-.391,5.514-2.06,1.194-1.208,2.512-2.294,3.808-3.394,2.852-2.424,5.236-4.638,4.937-9.3-.311-4.868,4.07-8.9,8.87-9.846,4.606-.905,9.98,1.5,11.65,6.156,1.2,3.353,3.323,4.842,6.163,6.16,5.828,2.7,11.512,5.729,17.373,8.345a17.477,17.477,0,0,0,15.009-.089c5.821-2.717,11.556-5.625,17.367-8.364a6.55,6.55,0,0,0,3.865-4.268c1.884-5.738,6.866-8.825,12.016-8,5.383.859,9.044,4.929,9.45,11.108a6.11,6.11,0,0,0,2.291,4.8c2.1,1.731,4.162,3.514,6.1,5.426a10.908,10.908,0,0,0,7.968,3.469c8.6.261,13.5,10.619,8,17.4-4.122,5.086-2.271,10.387-2.5,15.661-.039.912,1.26,1.91,1.991,2.827a11.078,11.078,0,0,1,1.631,12.079,10.152,10.152,0,0,1-10.046,6.482,7.985,7.985,0,0,0-6.232,2.661c-1.566,1.559-3.237,3.02-4.939,4.425-2.527,2.086-4.337,4.165-4.517,8.009-.249,5.312-4.618,9.017-9.729,9.58a10.439,10.439,0,0,1-11.127-7.1,8.678,8.678,0,0,0-5.223-5.642c-4.779-2.145-9.533-4.371-14.151-6.85-3.529-1.894-7.074-3.149-11.083-2.458-1.946.336-4.032.407-5.788,1.208-6.458,2.944-12.782,6.19-19.205,9.216a7.9,7.9,0,0,0-4.3,4.631,10.553,10.553,0,0,1-12.223,6.775c-5.321-1.144-8.951-5.217-8.809-10.975a7.276,7.276,0,0,0-3.171-6.46,51.3,51.3,0,0,1-4.565-4.077,8.626,8.626,0,0,0-7.514-3c-4.8.39-8.366-2.247-10.286-6.821-1.852-4.408-1.311-8.864,2.17-11.874,4.764-4.119,2.344-9.178,2.678-13.871.05-.69-1.189-1.517-1.893-2.216-3.6-3.576-4.907-7.753-3.052-12.66C2782.589,3083.086,2786.375,3080.737,2792.264,3080.808Zm35.858-5.781c-1.469-.14-3.1-.686-3.736,2.193l20.669,21.161c-1.04,1.75-1.793,3.017-2.7,4.537l-12.731-3.152c1.4-3.33,2.539-6.056,4.156-9.917-4.407,2.179-7.956,3.644-11.2,5.632a7.982,7.982,0,0,1-7.131.945c-3.7-1.143-7.5-1.942-11.27-2.855-2.134-.518-2.587.694-2.464,2.865l12.942,3.44c-2.943,2.951-5.5,5.52-8.282,8.308l8.629,8.209c-4.361,1.078-7.913,1.919-11.443,2.842-2.438.637-2.275,1.957-.825,3.7,4.361-1.021,8.687-1.788,12.849-3.1a8.119,8.119,0,0,1,7.122,1.054c3.292,1.917,6.8,3.444,11.046,5.548-1.56-3.9-2.708-6.772-4.016-10.039l12.923-2.987,2.206,4.707-20.589,21.113c.684,1.4,1.122,2.3,1.561,3.183l2.892,2.775,26.946-12.07c-2.285-2.69-4.392-1.772-6.623-.786-7.72,3.416-15.475,6.749-23.217,10.113,6.056-6.2,12.146-12.359,18.139-18.617,1.123-1.173,2.512-2.658,2.665-4.12.549-5.3,2.895-9.185,8.295-11.594-5.3-2.488-7.663-6.089-8.241-11.166a8.4,8.4,0,0,0-2.467-4.219c-4.547-4.824-9.269-9.476-13.848-14.269a26.244,26.244,0,0,1-2.433-3.58c1.711.626,3.458,1.166,5.126,1.895,5.55,2.424,11.1,4.859,16.59,7.407,2.176,1.009,4.081,1.226,6.1-1.009-8.594-3.849-17.007-7.652-25.467-11.346-.756-.331-1.809.049-2.724.1Zm53.965,14.84c1.706,4.086,2.86,6.846,4.173,9.991l-12.91,3.052-2.481-4.549,20.573-21.151-2.746-1.907c-6.13,6.257-12.1,12.324-18.028,18.444a4.611,4.611,0,0,0-1.513,2.556c-.111,5.577-3.02,9.232-7.664,11.806,5.816,3.991,6.286,4.763,7.569,11.112a6.576,6.576,0,0,0,1.435,3.138c5.991,6.255,12.078,12.414,18.3,18.771l2.51-2.182-20.542-21.078c1.077-1.749,1.865-3.024,2.785-4.519l12.733,3.149-4.213,9.957c4.525-2.262,8.174-3.878,11.609-5.88a7.132,7.132,0,0,1,6.2-.842c3.38,1.036,6.876,1.675,10.317,2.511,2.17.528,3.266-.126,2.888-2.742l-12.048-3.15,8.374-8.31-8.494-8.077,12.57-3.354c-1.488-2.835-1.512-2.954-2.747-2.68-3.291.729-6.6,1.424-9.823,2.41a8.861,8.861,0,0,1-8.09-1.083C2889.774,3093.276,2886.315,3091.947,2882.087,3089.867Zm15.4-29.795a7.3,7.3,0,0,0-.67,14.581,7.3,7.3,0,0,0,.67-14.581Zm33.455,64a7.171,7.171,0,0,0-7.162-7.13,7.293,7.293,0,0,0-7.173,7.675,7.367,7.367,0,0,0,7.453,6.907A7.259,7.259,0,0,0,2930.938,3124.069Zm-65.846-27.151a7.161,7.161,0,1,0-6.934,7.462A7.387,7.387,0,0,0,2865.092,3096.918Zm-47.923-22.254a7.3,7.3,0,0,0,.554-14.586,7.3,7.3,0,0,0-.554,14.586Zm-26.419,56.843a7.284,7.284,0,1,0,.245-14.566,7.289,7.289,0,0,0-.245,14.566Zm113.688,17.464a7.228,7.228,0,0,0-6.917-7.406,7.153,7.153,0,0,0-7.367,6.91,7.154,7.154,0,1,0,14.283.5Zm-86.9-7.409a7.1,7.1,0,0,0-7.321,6.942,7.136,7.136,0,1,0,14.248.438A7.177,7.177,0,0,0,2817.534,3141.562Zm-26.385-56.854a7.21,7.21,0,0,0-7.292,7,7.169,7.169,0,1,0,14.319.315A7.314,7.314,0,0,0,2791.149,3084.707Zm73.935,34.271a7.162,7.162,0,1,0-14.32.282,7.166,7.166,0,1,0,14.32-.282Zm65.849-27.173a7.124,7.124,0,0,0-7.21-7.071,7.269,7.269,0,0,0-7.118,7.211,7.173,7.173,0,1,0,14.328-.14Zm-42.926-17.355c-.521-2.581-1.494-3.133-3.628-2.12-5.308,2.519-10.716,4.818-16.079,7.217-2.676,1.2-5.342,2.419-8.012,3.629q.087.543.174,1.088c1.554.149,3.343.886,4.622.351C2872.8,3081.381,2880.409,3077.858,2888.007,3074.45Zm.025,67.39c-7.726-3.47-15.239-6.874-22.779-10.209-1.8-.794-3.413-.444-4.98,1.493,7.114,3.2,13.858,6.241,20.606,9.273,1.23.553,2.512,1,3.7,1.626C2886.416,3144.99,2887.417,3144.372,2888.032,3141.84Zm-89.824-59.184q.087.707.175,1.413c.958.1,2.291.669,2.81.231,3.02-2.555,5.848-5.346,8.982-8.284l-2.622-2.111Zm119.349-.2-10.269-9.369-2.189,2.414,9.793,9.168C2915.73,3083.974,2916.35,3083.458,2917.556,3082.456Zm-9.994,60.563,9.916-9.282-2.594-2.092c-2.907,2.7-5.605,5.215-8.3,7.726C2904.934,3140.906,2905.724,3141.912,2907.563,3143.019Zm-109.473-9.49c2.938,2.751,5.6,5.367,8.4,7.821,1.829,1.605,2.549.208,3.261-1.572-2.691-2.5-5.33-4.889-7.889-7.363C2800.307,3130.917,2799.241,3131.344,2798.089,3133.529Zm128.655-30.077c-4.036-.451-3.074,2.483-2.98,4.322.1,1.9-1.373,5.071,2.98,5.031Zm-137.55.377v8.955c2.977-.924,3.292-1.89,2.911-6.816C2791.962,3104.109,2791.528,3102.963,2789.194,3103.829Z" transform="translate(-65.979 -99.764)" fill="#ccad6c" fill-rule="evenodd"/>
      <path id="Trazado_6582" data-name="Trazado 6582" d="M2917.746,3219.809l7.079-2.176c.522,45.176-.272,89.5-.066,135.132a34.225,34.225,0,0,1-2.259-3.656,61,61,0,0,1-4.882-24.551c.321-32.886.128-65.778.127-98.668Z" transform="translate(-134.162 -179.714)" fill="#ccad6c" fill-rule="evenodd"/>
      <path id="Trazado_6583" data-name="Trazado 6583" d="M2936.484,3219.588c6.082-.55,7.383.434,7.379,5.36q-.052,53.974-.209,107.946c-.028,6.83-3.158,12.878-6.249,19.156a21.2,21.2,0,0,1-.548-3.086c-.082-2.408-.021-4.819-.028-7.23q-.171-58.1-.344-116.2C2936.479,3223.665,2936.484,3221.794,2936.484,3219.588Z" transform="translate(-143.386 -180.592)" fill="#ccad6c" fill-rule="evenodd"/>
      <path id="Trazado_6584" data-name="Trazado 6584" d="M2929.969,2995.56c-.148.111.191-.037.374-.3,1.251-1.78,2.98-2.8,4.715-1.2.886.818,1.192,2.773,1.013,4.115a3.461,3.461,0,0,1-4.021,3.155,11.682,11.682,0,0,1-4.265-1.572,52.469,52.469,0,0,1-4.705-3.423l-1.834,4.095a29.238,29.238,0,0,0-3.913-2.79c-2.839-1.375-6.933.289-6.751,3.263.315,5.132-3.69,7.7-5.2,11.946-1.842-2.537-3.526-4.664-4.965-6.944a5.636,5.636,0,0,1-.479-2.919c.026-2.223-.52-4.126-2.623-5.2a5.113,5.113,0,0,0-6.173.974c-.608.542-1.288,1-2.138,1.659-.673-1.476-1.212-2.658-1.812-3.976a61.783,61.783,0,0,1-6.666,4.367c-3.449,1.681-6.572-.149-6.6-3.74-.009-1.056.5-2.687,1.249-3.039,1.006-.474,2.536-.158,3.725.2.7.212,1.172,1.168,1.255,1.258l13.131-4.658c-.026.07.369-.992.8-2.164l6.885,3.87c.155-2.161.245-3.413.35-4.886h7.556c.087,1.313.176,2.664.327,4.951l6.832-3.961c.352,2.709,1.992,3.433,4.738,3.7C2923.682,2992.625,2926.455,2994.262,2929.969,2995.56Z" transform="translate(-113.116 -65.858)" fill="#ccad6c" fill-rule="evenodd"/>
      <path id="Trazado_6585" data-name="Trazado 6585" d="M3011.987,2971.8c-18.758-15.855-39.514-24.507-63.331-26.382v-5.653c25.539,1.717,47.613,10.977,67.579,28.127Z" transform="translate(-149.807 -41.883)" fill="#ccad6c" fill-rule="evenodd"/>
      <path id="Trazado_6586" data-name="Trazado 6586" d="M2856.809,2939.69c.125,1.643.255,2.49.231,3.332a17.523,17.523,0,0,1-.426,2.367c-23.667,1.848-44.563,10.642-63.2,26.414l-4.111-3.949C2809.125,2950.738,2831.132,2941.59,2856.809,2939.69Z" transform="translate(-71.648 -41.848)" fill="#ccad6c" fill-rule="evenodd"/>
      <path id="Trazado_6587" data-name="Trazado 6587" d="M2853.556,3338.542v5.6c-24.128-2.347-44.851-11.479-63.314-27.421l4.551-3.491A112.974,112.974,0,0,0,2853.556,3338.542Z" transform="translate(-72.09 -225.213)" fill="#ccad6c" fill-rule="evenodd"/>
      <path id="Trazado_6588" data-name="Trazado 6588" d="M2955.344,3344.617v-5.575c21.833-2.643,41.431-10.687,58.432-25.082.989.578,1.883,1.019,2.681,1.591a24.842,24.842,0,0,1,2.1,1.931C3000.383,3333.231,2979.588,3341.971,2955.344,3344.617Z" transform="translate(-153.045 -225.567)" fill="#ccad6c" fill-rule="evenodd"/>
      <path id="Trazado_6589" data-name="Trazado 6589" d="M2946.257,3050.2c-3.264,1.482-5.705,3.787-9.8,1.986V3043.9c0-4.476.091-8.954-.023-13.427-.149-5.885,1.695-10.8,6.512-14.311a31.165,31.165,0,0,1,.126-5.994c.152-.756,1.713-1.229,3.17-1.793-1.9,3.955,1.019,5.521,3.313,7.669-2.665,3.058-4.242,6.345-1.338,10-5.557,5.452-5.688,6.818-1.133,12.094C2943.594,3041.68,2943.654,3045.67,2946.257,3050.2Z" transform="translate(-143.394 -76.062)" fill="#ccad6c" fill-rule="evenodd"/>
      <path id="Trazado_6590" data-name="Trazado 6590" d="M2910.6,3008.694c3.724,1.989,3.724,1.989,2.669,7.437,5.1,3.723,6.852,8.939,6.641,15.2-.236,7.006-.054,14.026-.054,20.945-4.033,1.988-6.527-.524-9.61-1.821,2.067-4.367,2.75-8.42-.6-11.708,1.015-2.317,2.766-4.464,2.6-6.454-.17-2.075-2.187-4-3.613-6.346,1.632-4.866,1.632-4.866-1.622-9.675C2910.408,3012.871,2910.408,3012.871,2910.6,3008.694Z" transform="translate(-129.01 -76.219)" fill="#ccad6c" fill-rule="evenodd"/>
      <path id="Trazado_6591" data-name="Trazado 6591" d="M2932.807,2931.924h-6.233c0-5.774-.022-11.361,0-16.947.051-10.572.186-21.144.132-31.715-.007-1.548-.861-3.091-1.458-5.088h8.76a66.575,66.575,0,0,0-.939,7.79c-.069,13.621.013,27.243.018,40.864C2933.092,2928.349,2932.927,2929.87,2932.807,2931.924Z" transform="translate(-137.904 -12.134)" fill="#ccad6c" fill-rule="evenodd"/>
      <path id="Trazado_6592" data-name="Trazado 6592" d="M2823.853,3011.5c-3.9,2.818-7.2,5.26-10.559,7.618-2.736,1.921-3.683,4.332-2.609,7.58a43.565,43.565,0,0,1,1,4.939,16.577,16.577,0,0,1-3.6-.385c-4.6-1.606-7.972-.132-10.535,3.829-1.861,2.876-3.822,5.685-6,8.908l-3.484-1.229c1.159-4.458,3.871-7.585,6.384-10.806,1.88-2.41,4.052-4.477,4.508-7.871a5.912,5.912,0,0,1,5.283-5.013c2.779-.376,4.632-2.013,6.61-3.668,3.406-2.849,6.923-5.543,11.415-7.212C2822.91,3009.524,2823.4,3010.555,2823.853,3011.5Z" transform="translate(-70.917 -75.942)" fill="#ccad6c" fill-rule="evenodd"/>
      <path id="Trazado_6593" data-name="Trazado 6593" d="M2730.72,3055.889l-5.45-1.454A110.719,110.719,0,0,1,2749.8,3010.6c.867.651,1.566,1.091,2.159,1.645.61.572,1.117,1.253,2,2.267A111.16,111.16,0,0,0,2730.72,3055.889Z" transform="translate(-39.632 -77.157)" fill="#ccad6c" fill-rule="evenodd"/>
      <path id="Trazado_6594" data-name="Trazado 6594" d="M3088.18,3013.671l3.926-3.012a109.771,109.771,0,0,1,24.525,43.428,21.56,21.56,0,0,1-2.348,1.1,20.7,20.7,0,0,1-2.416.513c-3.353-7.314-6.18-14.679-10-21.483C3098.02,3027.382,3093.186,3021.1,3088.18,3013.671Z" transform="translate(-218.273 -77.185)" fill="#ccad6c" fill-rule="evenodd"/>
      <path id="Trazado_6595" data-name="Trazado 6595" d="M3021.317,3032.137c.1-1.153.1-1.5.171-1.833,1.7-8.519,1.733-8.559-5.2-13.615-2.2-1.6-4.6-2.927-7.136-4.518.363-1.123.7-2.183,1.113-3.447,4.566.726,7.554,3.674,10.767,6.09,2.594,1.951,4.848,4.2,8.331,4.746a5.6,5.6,0,0,1,4.676,4.959c.336,3.044,2.26,4.86,3.88,7.045,2.525,3.407,4.858,6.956,7.57,10.876l-3.909,1.926c-2.6-3.678-5-7.008-7.335-10.376-2.038-2.936-4.749-3.668-8.1-2.762C3024.7,3031.617,3023.2,3031.79,3021.317,3032.137Z" transform="translate(-179.155 -76.203)" fill="#ccad6c" fill-rule="evenodd"/>
      <path id="Trazado_6596" data-name="Trazado 6596" d="M2756.266,3071.247c-1.668,3.941-3.181,7.563-4.734,11.167-1.453,3.373-1.122,6.282,1.915,8.7a27.842,27.842,0,0,1,2.829,3.023c-.873,2.015-2.824,2.009-4.313,2.422-3.489.97-5.111,3.136-5.249,6.659-.126,3.243-.637,6.5-.437,9.72.19,3.036-1.012,3.623-4.041,3.067a32.871,32.871,0,0,1-.061-12.044c.422-3.065.923-5.959-.318-9.059-1.092-2.724-.043-5.265,2-7.518a19.59,19.59,0,0,0,3.06-5.139c1.62-3.586,2.876-7.346,4.609-10.872C2752.777,3068.844,2753.1,3068.956,2756.266,3071.247Z" transform="translate(-48.028 -106.01)" fill="#ccad6c" fill-rule="evenodd"/>
      <path id="Trazado_6597" data-name="Trazado 6597" d="M3096.113,3071.226c2.994-2.244,3.334-2.292,4.839.519a69.291,69.291,0,0,1,3.342,7.519c1.293,3.307,1.919,6.812,4.963,9.349a5.575,5.575,0,0,1,1.084,6.717c-1.1,2.366-.735,4.585-.46,7,.517,4.546,1.467,9.156-.047,13.69-2.431.576-3.8.211-3.841-2.572-.048-3.761-.427-7.516-.614-11.276-.136-2.763-1.592-4.368-4.161-5.194-1.755-.564-3.456-1.294-5.765-2.172,1.551-1.688,2.68-3.139,4.031-4.34a5.465,5.465,0,0,0,1.6-6.889C3099.421,3079.652,3097.891,3075.669,3096.113,3071.226Z" transform="translate(-221.19 -106.051)" fill="#ccad6c" fill-rule="evenodd"/>
      <path id="Trazado_6598" data-name="Trazado 6598" d="M2751.09,3263.821c-9-8.284-20.23-27.657-22.757-39.125l5.281-.621a115.521,115.521,0,0,0,20.233,34.778C2752.954,3260.461,2752.143,3261.923,2751.09,3263.821Z" transform="translate(-41.111 -181.654)" fill="#ccad6c" fill-rule="evenodd"/>
      <path id="Trazado_6599" data-name="Trazado 6599" d="M2768.313,3293.1l35.3-36.784,5.746,2.948C2797.848,3273.485,2783.083,3283.372,2768.313,3293.1Z" transform="translate(-61.259 -197.41)" fill="#ccad6c" fill-rule="evenodd"/>
      <path id="Trazado_6600" data-name="Trazado 6600" d="M3116.265,3224.643c-4.972,15.473-13.067,28.025-23.253,40.08l-3.539-4.4a116.55,116.55,0,0,0,20.878-35.68Z" transform="translate(-218.898 -181.934)" fill="#ccad6c" fill-rule="evenodd"/>
      <path id="Trazado_6601" data-name="Trazado 6601" d="M3024.328,3256.339l34.479,35.237-.773.846c-13.992-9.692-27.943-19.435-39.36-32.787.8-.5,1.595-1.013,2.408-1.489C3021.97,3257.627,3022.878,3257.144,3024.328,3256.339Z" transform="translate(-183.853 -197.416)" fill="#ccad6c" fill-rule="evenodd"/>
      <path id="Trazado_6602" data-name="Trazado 6602" d="M2729.44,3197.271l3.362,5.477c-17.368,6.032-35.254,6.457-53.083,7.476C2696.149,3205.4,2712.8,3201.447,2729.44,3197.271Z" transform="translate(-17.63 -168.335)" fill="#ccad6c" fill-rule="evenodd"/>
      <path id="Trazado_6603" data-name="Trazado 6603" d="M2764.534,3283.922c9.714-14.46,19.182-29.114,32.367-40.825.393.3.761.454.912.725.825,1.479,1.6,2.988,2.544,4.78l-35.124,36.079Z" transform="translate(-59.392 -190.983)" fill="#ccad6c" fill-rule="evenodd"/>
      <path id="Trazado_6604" data-name="Trazado 6604" d="M3140.851,3199.336l-49.411-11.663c-.207-2.3-.375-4.159-.581-6.448C3108.85,3183.834,3124.868,3191.461,3140.851,3199.336Z" transform="translate(-219.567 -160.521)" fill="#ccad6c" fill-rule="evenodd"/>
      <path id="Trazado_6605" data-name="Trazado 6605" d="M2729.345,3180.973a8.05,8.05,0,0,1,.312,1.613c-.031,1.37-.147,2.74-.272,4.807l-49.046,11.953C2696.016,3191.345,2711.8,3183.861,2729.345,3180.973Z" transform="translate(-17.929 -160.399)" fill="#ccad6c" fill-rule="evenodd"/>
      <path id="Trazado_6606" data-name="Trazado 6606" d="M3084.3,3203.02l3.415-5.581,48.686,11.841C3118.932,3209.372,3101.628,3208.521,3084.3,3203.02Z" transform="translate(-216.397 -168.409)" fill="#ccad6c" fill-rule="evenodd"/>
      <path id="Trazado_6607" data-name="Trazado 6607" d="M3032.3,3248.347c1.228-2.18,2.145-3.809,3.206-5.694,13.015,11.413,22.559,25.269,31.522,39.643C3054.9,3271.63,3043.914,3259.834,3032.3,3248.347Z" transform="translate(-190.475 -190.748)" fill="#ccad6c" fill-rule="evenodd"/>
      <path id="Trazado_6608" data-name="Trazado 6608" d="M3144.183,3156.711l-5.116-2.165c.343-6.021.954-11.655.9-17.282s-.762-11.253-1.221-17.37l5.061-1.352C3146.459,3131.256,3146.076,3143.587,3144.183,3156.711Z" transform="translate(-242.699 -129.975)" fill="#ccad6c" fill-rule="evenodd"/>
      <path id="Trazado_6609" data-name="Trazado 6609" d="M2722.733,3154.26l-4.179,1.9c-3-6.921-3.048-27.453-.19-36.522.13-.111.275-.33.39-.316,1.337.17,2.67.375,3.979.568Z" transform="translate(-35.279 -130.345)" fill="#ccad6c" fill-rule="evenodd"/>
      <path id="Trazado_6610" data-name="Trazado 6610" d="M2754.588,2977.988l2.3-2.578,27.889,28.161-2.348,2.209Z" transform="translate(-54.508 -59.881)" fill="#ccad6c" fill-rule="evenodd"/>
      <path id="Trazado_6611" data-name="Trazado 6611" d="M3055.509,3005.139l-1.991-2.166,27.486-27.65,2.083,2.341Z" transform="translate(-200.809 -59.837)" fill="#ccad6c" fill-rule="evenodd"/>
      <path id="Trazado_6612" data-name="Trazado 6612" d="M3165.524,3094.1l-37.791,8.736c-.453-1.636-.806-2.911-1.335-4.825l38.1-8.849C3164.874,3090.979,3165.157,3092.337,3165.524,3094.1Z" transform="translate(-236.732 -115.466)" fill="#ccad6c" fill-rule="evenodd"/>
      <path id="Trazado_6613" data-name="Trazado 6613" d="M2664.729,3094.183c.4-1.712.691-2.956,1.137-4.865l37.819,8.685-1.145,4.909Z" transform="translate(-10.389 -115.545)" fill="#ccad6c" fill-rule="evenodd"/>
      <path id="Trazado_6614" data-name="Trazado 6614" d="M2741.159,2961.611h6.958v7.248l-6.017.311C2739.93,2966.871,2740.794,2964.41,2741.159,2961.611Z" transform="translate(-47.074 -52.436)" fill="#ccad6c" fill-rule="evenodd"/>
      <path id="Trazado_6615" data-name="Trazado 6615" d="M3118.268,2961.515v6.794h-7.2v-6.424C3113.088,2959.954,3115.607,2960.542,3118.268,2961.515Z" transform="translate(-229.33 -51.952)" fill="#ccad6c" fill-rule="evenodd"/>
      <path id="Trazado_6616" data-name="Trazado 6616" d="M3202.914,3087.411l4.286-6.454c2.257,1.449,4.06,2.605,6.282,4.033-1.306,2.186-2.4,4.014-3.8,6.363Z" transform="translate(-273.691 -111.442)" fill="#ccad6c" fill-rule="evenodd"/>
      <path id="Trazado_6617" data-name="Trazado 6617" d="M2649.624,3080.911c1.455,2.3,2.6,4.113,4.05,6.4l-6.405,4.089-4.048-6.317Z" transform="translate(0 -111.42)" fill="#ccad6c" fill-rule="evenodd"/>
      <path id="Trazado_6618" data-name="Trazado 6618" d="M2756.643,3125.531l9.166-3.427c.316,2.542.575,4.622.949,7.63l-9.958-2.658Q2756.722,3126.3,2756.643,3125.531Z" transform="translate(-55.463 -131.548)" fill="#ccad6c" fill-rule="evenodd"/>
      <path id="Trazado_6619" data-name="Trazado 6619" d="M2769.469,3108.43c-2.471-2.868-5.6-4.273-7.018-8.544l10.991,1.868Z" transform="translate(-58.305 -120.689)" fill="#ccad6c" fill-rule="evenodd"/>
      <path id="Trazado_6620" data-name="Trazado 6620" d="M3041.838,3056.6l-6.712,7.531-3.6-6.825,9.645-2.28Z" transform="translate(-189.882 -98.757)" fill="#ccad6c" fill-rule="evenodd"/>
      <path id="Trazado_6621" data-name="Trazado 6621" d="M3087.291,3108.779c-1.418-2.334-2.457-4.043-3.683-6.06,3.212-1.862,6.61-1.95,10.366-2.18C3093.091,3104.527,3089.6,3105.794,3087.291,3108.779Z" transform="translate(-215.349 -121.007)" fill="#ccad6c" fill-rule="evenodd"/>
      <path id="Trazado_6622" data-name="Trazado 6622" d="M2824.918,3057.1c-1.307,2.661-2.2,4.471-3.271,6.663-2.808-2.352-5.425-4.526-7.207-8.848Z" transform="translate(-83.727 -98.704)" fill="#ccad6c" fill-rule="evenodd"/>
      <path id="Trazado_6623" data-name="Trazado 6623" d="M2836.665,3044.952c-.755-3.442-1.422-6.483-2.3-10.466,4.346,1.979,6.582,4.614,9.009,7.438Z" transform="translate(-93.466 -88.719)" fill="#ccad6c" fill-rule="evenodd"/>
      <path id="Trazado_6624" data-name="Trazado 6624" d="M3091.533,3122.094l9.224,3.4q0,.665,0,1.331l-9.959,3.055C3091.073,3126.98,3091.285,3124.729,3091.533,3122.094Z" transform="translate(-218.862 -131.543)" fill="#ccad6c" fill-rule="evenodd"/>
      <path id="Trazado_6625" data-name="Trazado 6625" d="M3020.773,3044.734l-6.829-3.045,8.014-7.478C3023.424,3038.371,3021.579,3041.311,3020.773,3044.734Z" transform="translate(-181.27 -88.585)" fill="#ccad6c" fill-rule="evenodd"/>
      <path id="Trazado_6626" data-name="Trazado 6626" d="M2923.232,2856.116c.662-3.936,4.094-2.876,5.707-2.964,1.533-.083,4.924-.762,5.739,2.964Z" transform="translate(-136.931)" fill="#ccad6c" fill-rule="evenodd"/>
      <path id="Trazado_6627" data-name="Trazado 6627" d="M2927.2,2863.31h7.306c-.6,1.77-1.07,3.158-1.651,4.868l-3.871.219C2928.376,2866.664,2927.84,2865.135,2927.2,2863.31Z" transform="translate(-138.848 -4.955)" fill="#ccad6c" fill-rule="evenodd"/>
      <path id="Trazado_6628" data-name="Trazado 6628" d="M2876.839,3157.153v-9.618c4.141.946,7.786,1.684,11.361,2.675.744.206,1.832,1.511,1.7,2.028a3.679,3.679,0,0,1-2.042,2.333C2884.444,3155.556,2880.943,3156.223,2876.839,3157.153Z" transform="translate(-114.253 -143.993)" fill="#ccad6c" fill-rule="evenodd"/>
      <path id="Trazado_6629" data-name="Trazado 6629" d="M2979.315,3157.146c-4.1-.934-7.6-1.608-11.013-2.6a3.685,3.685,0,0,1-2.041-2.331c-.135-.5.981-1.792,1.734-2,3.582-.994,7.233-1.738,11.32-2.677Z" transform="translate(-157.979 -143.997)" fill="#ccad6c" fill-rule="evenodd"/>
    </g>
  </g>
</svg>
