<svg xmlns="http://www.w3.org/2000/svg" width="320" height="320" viewBox="0 0 320 320"><g transform="translate(-1172.706 -127.706)"><g transform="translate(1172.706 127.706)" fill="#fff" stroke="#707070" stroke-width="1" opacity="0"><rect width="320" height="320" stroke="none"/><rect x="0.5" y="0.5" width="319" height="319" fill="none"/></g><g transform="translate(1173.142 156.108)"><path d="M4158.914-1418.636c-2.241,6.582-4.286,12.58-6.327,18.578-1.9,5.6-3.664,11.238-5.772,16.768a7.2,7.2,0,0,0,.643,7.086c1.062,1.628,1.8,3.432,2.729,5.136.872,1.6.947,3.066-.884,4.616l-34.385-19.561c2.755-1.053,4.788-1.944,6.906-2.606A6.4,6.4,0,0,0,4125.9-1392c5.96-11.515,12.013-22.989,18.125-34.645-33.3-25.87-47.4-58.35-38.409-97.95,6.606-29.086,25.362-50.338,53.514-64.8-23.749,16.78-37.109,38.606-37.286,66.348-.179,27.913,12.924,49.927,37.37,67.35l31.8-60.486.844.322c-7.377,21.775-14.754,43.55-22.25,65.677a101.992,101.992,0,0,0,36.937,8.363c1.112-34.239,2.212-68.051,3.31-101.863l.813.007c1.816,33.806,3.632,67.611,5.471,101.826,13.363-1.167,25.7-4.083,37.845-9.846q-10.627-31.441-21.2-62.721l1.063-.383,29.881,56.85c43.392-29.637,48.588-95.7-3.526-130.586,17.087,3.684,43.085,32.015,50.251,56.184,11.764,39.676,0,73.423-32.188,101.877.609,1.275,1.257,2.746,2,4.171,5.538,10.567,11.286,21.045,16.544,31.729,1.8,3.663,4.2,6.013,8.351,7.013a29.811,29.811,0,0,1,3.91,1.615l-34.271,19.538c-1.536-1.354-1.956-2.717-1.008-4.369a7.976,7.976,0,0,1,.624-1.185c4.38-5.271,3.419-10.658,1.174-16.5-3.61-9.391-6.561-19-9.8-28.509-.425-1.248-.9-2.481-1.391-3.819-7.506,2.707-14.706,5.725-22.2,7.885-7.416,2.138-15.128,3.409-23.342,5.2.063,1.3.05,3,.238,4.675,1.456,12.983,3.08,25.95,4.347,38.948.334,3.433,1.226,5.9,5.1,6.932,4.2,1.123,6.1,3.883,6.094,8.226H4192.08c-.467-3.3.585-5.6,4.164-7.273,5.522-2.573,5.521-2.768,5.915-8.272,1.015-14.18,1.923-28.366,2.909-43.065C4189.335-1409.265,4173.867-1411.806,4158.914-1418.636Z" transform="translate(-4049.697 1611.753)" fill="#ccad6c" fill-rule="evenodd"/><path d="M4548.687-1415.118c-3.57-10.467-6.9-20.234-10.264-30.094.083-.148.166-.561.394-.667,14.086-6.577,21.607-18.4,25.828-32.7,5.289-17.911,4.483-35.917.066-53.855-5-20.323-14.01-38.573-28.512-53.886a104.826,104.826,0,0,0-19.411-15.715c1.556.271,3.128.474,4.663.833,1.7.4,3.39.886,5.054,1.427,18.041,5.873,32.4,16.953,43.791,31.843,17.72,23.16,25.914,49.527,24.7,78.614-.746,17.824-5.62,34.538-15.861,49.419a67.733,67.733,0,0,1-25.9,22.828C4551.7-1416.312,4550.092-1415.717,4548.687-1415.118Z" transform="translate(-4275.985 1618.34)" fill="#ccad6c" fill-rule="evenodd"/><path d="M4025.65-1444.853c-3.818,10.331-7.45,20.16-11.2,30.312a61.349,61.349,0,0,1-19.138-12.655c-11.781-11.275-18.756-25.212-22.575-40.888-9.909-40.674,6.126-88.377,38.608-114.742a82.793,82.793,0,0,1,35.328-17.279c1.07-.226,2.172-.293,3.653-.484-.475.672-.634,1.137-.952,1.311-16.195,8.9-27.816,22.239-36.574,38.193-11.132,20.279-16.774,41.963-15.617,65.211a78.265,78.265,0,0,0,4.658,23.37C4006.311-1460.406,4013.487-1450.585,4025.65-1444.853Z" transform="translate(-3969.828 1617.587)" fill="#ccad6c" fill-rule="evenodd"/><path d="M4286.551-1617.7a18.253,18.253,0,0,1,18.059-18.389,18.517,18.517,0,0,1,18.435,18.59,18.109,18.109,0,0,1-18.394,18A17.918,17.918,0,0,1,4286.551-1617.7Z" transform="translate(-4145.43 1636.09)" fill="#ccad6c" fill-rule="evenodd"/></g></g></svg>