<svg xmlns="http://www.w3.org/2000/svg" width="320" height="320" viewBox="0 0 320 320">
  <g id="selish_logo" transform="translate(-1172.706 -127.706)">
    <g id="bg" transform="translate(1172.706 127.706)" fill="#fff" stroke="#707070" stroke-width="1" opacity="0">
      <rect width="320" height="320" stroke="none"/>
      <rect x="0.5" y="0.5" width="319" height="319" fill="none"/>
    </g>
    <g id="selish" transform="translate(-1458.798 2740.748)">
      <path id="Trazado_6574" data-name="Trazado 6574" d="M2903.634-2341.62c-.981,3.422-2.119,6.549-6.471,7.337-1.105.2-1.6,2.792-2.765,3.847a65.678,65.678,0,0,1-7.208,5.57q-7.94,5.379-16.048,10.51a12.689,12.689,0,0,1-9.11,2.032c.11,4.035-3.421,4.271-5.9,5.537-1.106.566-2.885-2-3.822.883-.219.67-2.381.866-3.675.984a34,34,0,0,1-4.548-.2c-.168,2.316-1.348,3.781-3.835,4.516-11.856,3.5-23.8,6.4-36.239,6.764-4.633.134-9.268.4-13.89.757-3.086.24-5.528-.431-7.1-3.62-.127.888-.255,1.776-.426,2.955a21.994,21.994,0,0,1-16.347-4.267c-3.8-2.8-3.863-2.722-6.972,1.723-4.071-1.091-8.334-2.118-12.527-3.379a159.421,159.421,0,0,1-36.292-15.587c-7.908-4.744-15.178-10.569-22.612-16.074-2.711-2.007-4.528-4.984-7.526-6.879-1.438-.91-1.682-3.705-2.507-5.745h-3.668c.153-1.121.264-1.936.271-1.99-2.028-1.531-3.938-2.549-5.287-4.067-4.629-5.212-9.027-10.583-11.863-17.105-.949-2.186-3.2-3.769-4.415-5.883-13.953-24.377-21.461-50.56-21.354-78.725.022-6.018,1.122-12.031,1.709-18.047.5-5.1.586-10.27,1.524-15.284,3.618-19.349,10.493-37.473,21.771-53.7,5.635-8.111,10.355-17.089,18.427-23.171,3.324-2.5,4.885-6.2,7.769-8.9a159.719,159.719,0,0,1,45.609-29.686c.817-.359,1.721-1.013,2.493-.9,5.231.768,8.9-2.966,13.345-4.373a145.951,145.951,0,0,1,20.683-5.344c7.684-1.236,15.54-1.5,23.335-1.894,2.375-.12,4.787.96,7.2,1.091,4.425.24,8.867.2,13.3.243,1.9.021,3.875-.366,5.694.016,8.194,1.72,16.411,3.4,24.487,5.591,5.13,1.388,10.029,3.636,15.032,5.5.167.062.393.04.511.146,5.7,5.132,13.512,6.006,19.86,9.956,12.988,8.083,25.01,17.321,35.074,28.831,4.3,4.924,6.926,11.4,11.5,15.98a67.032,67.032,0,0,1,9.743,13.042c1.357,2.235,2.009,4.89,3.045,7.328,1.808,4.253,3.419,8.614,5.561,12.694,3.119,5.941,6.261,11.8,6.15,18.762,2.688,3.106.868,7.489,2.323,10.309,1.835,3.555.16,7.573,2.708,10.724a4.827,4.827,0,0,1,.4,3.654c-1.57,6.478,1.123,12.765.686,19.185-.4,5.926.088,11.87-1.984,17.7-1.079,3.042-.526,6.625-1.075,9.9a92.563,92.563,0,0,1-2.756,12.507c-2.088,6.636-4.5,13.175-6.987,19.677a29.253,29.253,0,0,1-5.474,8.761c-3.073,3.552-4.652,8.381-6.981,12.6a53.4,53.4,0,0,1-3.164,4.662c-1.627,2.328-3.239,4.667-4.919,6.956-.827,1.127-1.8,2.149-2.693,3.225-.757.907-2.052,1.764-2.16,2.748-.489,4.439-4.263,6.412-6.707,9.346C2906.113-2341.365,2904.645-2341.69,2903.634-2341.62Zm-243.813-154.617c0,2.453.294,4.6-.072,6.634-.489,2.711-1.579,5.307-2.25,7.993-.777,3.115-1.411,6.269-2.048,9.417a37.862,37.862,0,0,0-1.24,7.22c-.016,7.5.238,15,.448,22.491a25.894,25.894,0,0,0,.548,5.289c1.425,5.934,4.482,11.529,3.606,17.933a2.362,2.362,0,0,0,.268,1.03c3.116,8.355,5.955,16.829,9.474,25.01,1.856,4.317,4.788,8.2,7.448,12.133,1.978,2.925,4.912,5.348,6.3,8.49a28.024,28.024,0,0,0,5.552,8.369c4.968,5.134,10.037,10.17,15.046,15.263,4.964,5.047,11.532,7.793,17.219,11.813a104.091,104.091,0,0,0,35.894,15.95,102.307,102.307,0,0,0,12.053,1.741c4.774.561,9.763.3,14.3,1.619,6.644,1.937,13.048,1.4,19.6.293,4.2-.712,8.389-1.8,12.61-1.952a52.527,52.527,0,0,0,21.884-5.963,11.009,11.009,0,0,1,2.5-.951c5.248-1.169,10.551-2.125,14.545-6.277.655-.681,1.913-.751,2.843-1.206,6.813-3.332,13.689-6.534,18.928-12.329a54.051,54.051,0,0,1,5.95-5.373c2.585-2.119,5.663-3.759,7.865-6.2,6.84-7.6,14.221-14.708,17.954-24.769,2.383-6.422,7.443-11.682,9.24-18.566.743-2.847,1.539-6.079,3.412-8.13a11.9,11.9,0,0,0,3.449-8.112c-.1-2.949.929-5.111,1.824-7.6.534-1.488-.385-3.566.276-4.928,2.429-5.006,2.639-10.159,2.09-15.529-.16-1.568.563-3.206.643-4.824.245-4.927.746-9.924-2.321-14.157.547-.875,1.664-1.854,1.5-2.53-1.128-4.748-2.52-9.433-3.512-13,.3-2.513.96-4.192.6-5.607-1.293-5.008-2.728-10-4.506-14.856a140.246,140.246,0,0,0-6.135-14.265c-2.232-4.485-5.929-8.176-7.343-13.147-.077-.273-.506-.445-.724-.623h-4.7c3.238-1.825,3.213-3.535,1.393-5.072-2.836-2.4-5.787-4.655-8.711-6.944-1.392-1.09-2.835-2.113-4.428-3.294,1.276-1,1.9-1.484,3.07-2.4-3-2.394-5.649-4.314-8.07-6.493-3.542-3.19-6.557-7.093-10.442-9.746-7.039-4.806-14.469-9.061-21.9-13.255-3.865-2.182-8.218-3.495-12.1-5.651-4.078-2.266-9.026-1.527-12.937-4.177a2.215,2.215,0,0,0-2.052.019c-2.874,2.252-5.114-1.709-7.805-.691-1.814-2.923-4.894-2.634-7.644-2.785-8.28-.454-16.573-.961-24.859-.936a105.879,105.879,0,0,0-15.455,1.518c-25.431,3.85-47.162,15.447-66.8,31.669a123.857,123.857,0,0,0-30.328,37.124c-1.442,2.668-3.085,5.229-4.553,7.884-.819,1.482-2.04,3.038-2.094,4.6A13.663,13.663,0,0,1,2659.821-2496.237Zm91.93,192.519a7.622,7.622,0,0,0-.858,2.083c-.015.347.535.719.832,1.08a5.823,5.823,0,0,0,1.082-1.519C2752.895-2302.35,2752.348-2302.827,2751.751-2303.718Z" transform="translate(0)" fill="#ccad6c" fill-rule="evenodd"/>
      <path id="Trazado_6575" data-name="Trazado 6575" d="M2863.011-2299.738c-6.429-9.878-8.812-19.924-6.392-31.365,1.915-9.052,2.549-18.387,3.544-27.62.782-7.266-1.043-14.173-4.191-20.613-2.9-5.929-6.229-11.664-9.651-17.314-3.759-6.206-8.776-10.748-16.615-10.953a12.937,12.937,0,0,1-3.306-1.106,10.823,10.823,0,0,1,4.223-6.573c4.47-3.359,6.675-8.313,9.505-12.8a6.811,6.811,0,0,0-1.641-8.738c-2.46-2.094-6.51-2.587-8.884-.242-4.749,4.69-10.714,8.074-14.181,14.211-2.247,3.977-5.664,7.292-9,11.454l-10.05-5.2c11.72-30.742,35.569-48.124,64.72-61.339.388,3.069.944,5.3.9,7.523-.1,4.718,1.407,7.486,4.928,8.237,3.774.8,9.149-1.936,9.779-5.657,1.14-6.748,1.134-13.708-1.988-19.913-3.267-6.493-7.689-12.4-11.154-18.8-3.953-7.309-7.4-14.893-11.086-22.345-.792-1.6-1.728-3.13-2.548-4.718-2.775-5.374-5.969-5.75-11.658-3.428-4.333,1.769-5.293,6.483-2.906,11.514,5.051,10.645,9.392,21.652,16.012,31.5a8.371,8.371,0,0,1,.515,1.523c-7.09,3.743-14.525,7.122-21.371,11.437-6.753,4.255-12.91,9.457-19.757,14.564-.344-1.513-.744-2.973-1.006-4.457-3.075-17.378-11.916-31.165-26.024-41.623-4.294-3.183-8.857-2.586-11.867,1.291-3.167,4.08-2.461,8.654,2,12.123,11.708,9.113,18.939,20.7,20.022,35.756a30.22,30.22,0,0,0,.484,3.18c.992,5.485.323,10.454-3.046,15.249-3.047,4.336-5.25,9.264-8.333,14.851-1.916-6.744-3.657-12.707-5.3-18.7-1.459-5.339-3.107-10.653-4.137-16.079-1.882-9.915-7.847-17.074-15.085-23.423-3.479-3.052-7.233-5.79-11.485-9.164,3.9-4.337,7.611-8.846,11.721-12.96a119.785,119.785,0,0,1,28.951-21.087,150.626,150.626,0,0,1,16.513-7.189,23.728,23.728,0,0,1,9-1.966c3.49.125,5.668-2.608,8.838-2.878,3.187-.271,6.35-.845,9.525-1.265,18.431-2.436,36.332.188,53.908,5.74,1.726.546,3.8.571,4.148,3.378.279,2.23,2.644,1.771,4.4,2.029a45.406,45.406,0,0,1,8.7,1.89c1.339.48,2.06,2.5,3.381,3.269,1.419.828,3.461.643,4.8,1.541,4.894,3.277,9.912,6.477,14.315,10.35,5.6,4.925,10.646,10.478,16.474,16.3-1.928,1.188-2.989,2.329-4.183,2.492-5.551.758-9.956,3.774-14.419,6.768-1.77,1.187-3.836,1.994-5.423,3.371a34.819,34.819,0,0,0-3.862,4.758c-3.892,4.849-4.872,10.656-5,16.568-.052,2.379.954,4.833,1.735,7.167,1.4,4.172,2.765,8.38,4.56,12.387,1.65,3.685.672,6.994-.6,10.349-1.245,3.293-2.679,6.514-4.433,10.737-3.027-3.387-5.607-6.028-7.9-8.9-3.454-4.323-6.788-8.749-10.031-13.234-4.169-5.765-10.225-6.476-16.307-5.381-11.378,2.048-20.268,11.878-22.057,23.464a9.136,9.136,0,0,0,.032,3.719c2.206,7.909,4.438,15.839,8.843,22.883a23.146,23.146,0,0,0,15.758,11.015,34.491,34.491,0,0,1,6.1,1.979c3.555,1.415,7.062,2.236,10.961,1.249a12.409,12.409,0,0,1,5.838.165c6.012,1.514,12.131,2.855,17.881,5.1,6.873,2.684,11.512,8.131,14.811,14.671,1,1.988,2.447,3.959,2.722,6.063.573,4.4,1.225,9.01.506,13.31a39.732,39.732,0,0,1-4.914,14.088c-3.738,6.056-9.614,10.293-15.677,14.079-3.014,1.883-5.9,3.965-8.883,5.9-4.924,3.2-9.839,6.189-15.9,7.184-3.787.622-7.456,2.469-10.959,4.207C2875.12-2301.327,2868.952-2300.852,2863.011-2299.738Zm34.42-73.882c-3.693-1.12-7.386,2.377-11.35,4.548-4.948,2.713-8.932,6.749-10.445,12.382-1.415,5.273-3.443,10.469-.3,16.147,3.343,6.033,7.6,10.882,14.058,13.177,16.423,5.833,25.929-5.763,31.7-18.334,1.122-2.443.361-6.031-.264-8.932a24.628,24.628,0,0,0-7.422-13.249C2909.164-2371.866,2904.5-2373.527,2897.431-2373.62Z" transform="translate(-53.506 -31.183)" fill="#ccad6c" fill-rule="evenodd"/>
      <path id="Trazado_6576" data-name="Trazado 6576" d="M2821.6-2242.88c-11.991-1.08-23.377-1.143-33.762-5.14,1.958-6.541,4.426-12.533,5.422-18.761.974-6.095.306-12.437.61-18.658.43-8.793-3.612-16.127-7.615-23.373-4.012-7.26-10.613-12.031-17.748-15.907-4.536-2.464-9.4-4.325-14.081-6.528-1.9-.892-3.6-2.312-5.571-2.884a26.842,26.842,0,0,0-7.384-.991c-6.2-.006-12.431-.074-18.593.5-5.813.537-11.555,1.855-17.761,2.9a9.864,9.864,0,0,1-1.65-6.57,5.979,5.979,0,0,0-.177-2.529c-4.3-14.7-4.094-29.609-2.043-44.577a104.964,104.964,0,0,1,2.612-11.806,13.826,13.826,0,0,1,1.816-3.1c.4-.68,1.185-1.5,1.043-2.066-1.229-4.936,1.279-8.421,4.022-12.073,1.3-1.725,1.568-4.211,2.332-6.342,1.91-5.325,4.065-6.151,8.693-2.715,7.149,5.307,12.541,11.561,14.717,20.889,2.866,12.284,5.29,24.792,10.3,36.485a23.451,23.451,0,0,0,4.522,6.322,93.613,93.613,0,0,0,23.58,18.374c6.7,3.7,14.5,4.844,22.243,5.4a49.321,49.321,0,0,1,11.022,1.855,12.173,12.173,0,0,1,5.338,4.124c5.448,6.861,7.144,15.057,7.711,23.562a87.149,87.149,0,0,1-2.3,25.015c-2.663,11.812-2.683,23.364,1.9,34.733A29.192,29.192,0,0,1,2821.6-2242.88Z" transform="translate(-31.663 -86.903)" fill="#ccad6c" fill-rule="evenodd"/>
      <path id="Trazado_6577" data-name="Trazado 6577" d="M3063.273-2308.3c-2.367-5.348-4.153-10.369-6.716-14.956-4.728-8.464-11.916-14.471-20.241-19.375-7.563-4.456-15.964-4.609-24.2-5.451-8.428-.862-16.108-4.136-22.928-8.386-7.4-4.614-11.585-15.4-2.3-24.323,3.5.684,5.1,3.617,6.5,6.382a46.465,46.465,0,0,0,12.7,15.038,24.8,24.8,0,0,0,9.843,5.058c3.08.669,6.752-.05,9.851-1.087,5.8-1.94,8.444-7.622,11.611-12.128,2.257-3.211,2.45-8.015,3.1-12.18,1.415-9.012,1.352-18.066-4.058-25.841-4.24-6.1-1.336-11.74,3.787-14.964a71.931,71.931,0,0,1,6.3-3.469c5.945-2.953,14.038-.574,17.261,5.024.357.619.5,1.577,1.016,1.853,4.527,2.409,5.166,7.063,6.391,11.24,1.824,6.221,3.431,12.521,4.77,18.862a33.98,33.98,0,0,1,.209,8.208c-.259,6.73,1.434,13.361.347,20.195-.817,5.133.17,10.41-.968,15.717-1.984,9.258-4.552,18.216-8.876,26.661C3065.406-2313.753,3064.471-2311.119,3063.273-2308.3Z" transform="translate(-162.199 -87.031)" fill="#ccad6c" fill-rule="evenodd"/>
      <path id="Trazado_6578" data-name="Trazado 6578" d="M2719.98-2222.317a36.978,36.978,0,0,1,17.723-3.365c10.649.552,21.183,1.919,30.813,7.165a33.816,33.816,0,0,1,12.424,10.734c1.136,1.7,3.063,3.192,1.916,5.731a1.625,1.625,0,0,0,.448,1.373c4.159,4.055,3.362,9.008,2.62,13.968a6.411,6.411,0,0,0-.083,1.98,27.582,27.582,0,0,1-5.337,21.925c-.083.112-.326.1.134-.028-5.375-2.534-10.64-4.334-15.135-7.3a161.723,161.723,0,0,1-18.123-14.036c-4.486-3.976-9.087-8.111-11.12-14.14a2.607,2.607,0,0,0-.959-1.242C2727.17-2204.983,2725.753-2214.709,2719.98-2222.317Z" transform="translate(-40.997 -179.489)" fill="#ccad6c" fill-rule="evenodd"/>
      <path id="Trazado_6579" data-name="Trazado 6579" d="M3021.217-2179.438c-3.007,0-6.072-3.108-6.21-6.305-.144-3.327,4.641-8.315,7.917-8.252,2.6.05,6.245,4.166,6.293,7.1C3029.268-2183.761,3024.636-2179.443,3021.217-2179.438Z" transform="translate(-177.701 -194.195)" fill="#ccad6c" fill-rule="evenodd"/>
    </g>
  </g>
</svg>
