<svg xmlns="http://www.w3.org/2000/svg" width="320" height="320" viewBox="0 0 320 320">
  <g id="taldain" transform="translate(-1172.706 -127.706)">
    <g id="Rectángulo_17" data-name="Rectángulo 17" transform="translate(1172.706 127.706)" fill="#fff" stroke="#707070" stroke-width="1" opacity="0">
      <rect width="320" height="320" stroke="none"/>
      <rect x="0.5" y="0.5" width="319" height="319" fill="none"/>
    </g>
    <g id="taldain-2" data-name="taldain" transform="translate(130.546 16)">
      <path id="Trazado_6573" data-name="Trazado 6573" d="M2660.749-356.6c5.235-2.5,10.639-2.007,15.88-.537,7.292,2.047,13.719,5.356,17.812,12.415,3.56,6.141,8.241,7.965,14.843,6.224a19.4,19.4,0,0,1,13.914,1.6,39.219,39.219,0,0,1,14.163,11c.75.955,1.542,1.876,2.462,2.992,2.585-1.911,5.081-3.565,7.33-5.506a7.688,7.688,0,0,0,2.121-3.465,18.356,18.356,0,0,0-7.083-20.2,35.852,35.852,0,0,0-3.671-2.146c-7.8-4.109-12.044-10.684-11.713-19.372.448-11.78-3.934-21.013-12.774-28.44-.22-.185-.232-.617-.442-1.229a13.493,13.493,0,0,1,2.1.014c10.638,1.768,21.581,13.258,22.786,23.9.932,8.228,3.877,11.68,11.753,13.5a18.9,18.9,0,0,1,10.552,6.722,40.287,40.287,0,0,1,9.056,19.373c12.277,2.2,20.323-15.81,14.1-25.759-1.032-1.652-2.193-3.225-3.277-4.846a20.562,20.562,0,0,1-2.3-19.754,17.509,17.509,0,0,1,1.012-2.457c5.951-10.482,5.287-21-.375-32.462a26.606,26.606,0,0,1,3.684,2.007c8.862,7.266,12.788,20.746,9.3,31.708-2.416,7.583-1.408,11.589,4.7,16.333,5.045,3.917,6.938,9.274,7.687,15.216a39.769,39.769,0,0,1-1.543,18.453c6.365,2.916,12.26,3.4,17.911-1.215,5.675-4.635,8.362-10.4,7.291-17.769-.382-2.627-1.018-5.3-.868-7.906a20.156,20.156,0,0,1,6.083-13.79,38.015,38.015,0,0,1,3.954-3.552c8.435-6.114,11.946-14.654,12.391-24.749.031-.705.1-1.411.2-2.109.016-.106.271-.179.746-.469a18.983,18.983,0,0,1,3.86,11.1c.515,9.31-1.018,17.853-8.333,24.774-4.43,4.192-5.909,9.594-2.469,15.469,2.555,4.366,2.733,9.016,1.594,13.893a39.561,39.561,0,0,1-10.534,19.634c2.41,2.032,4.644,4.025,7.009,5.848a6.628,6.628,0,0,0,2.886,1.124,18.8,18.8,0,0,0,20.619-12.293c.295-.836.616-1.669.825-2.527,2.186-9.017,7.875-14.691,16.878-16.416,11.58-2.219,19.485-8.761,24.611-19.1.115-.231.533-.312,1.033-.586,0,2.517.49,5.042-.084,7.3-2.7,10.6-7.849,19.252-18.969,23.128-7.027,2.45-9.533,6.212-9.408,13.59a19.41,19.41,0,0,1-4.624,12.709,39.547,39.547,0,0,1-17.449,12.957c1.921,6.081,4.263,11.363,11.27,12.681,7.077,1.331,13.414.278,18.475-5.308.834-.92,1.645-1.862,2.488-2.773a20.2,20.2,0,0,1,17.184-6.726,30.5,30.5,0,0,1,5.767.893c9.831,2.733,18.547.176,26.68-5.389.811-.555,1.64-1.085,2.546-1.684.167.637.408,1.015.316,1.276-3.576,10.21-16.88,18.945-27.578,18.164a35.705,35.705,0,0,0-5.836-.218c-4.464.413-8.452,2.026-10.161,6.529-2.8,7.378-8.611,11.173-15.649,13.193-5.046,1.448-10.349,2.005-16.466,3.13,0,2.43-.17,5.74.085,9.017a7.617,7.617,0,0,0,1.807,3.71,18.878,18.878,0,0,0,21.939,6.069,38.68,38.68,0,0,1,11.222-2.819,17.37,17.37,0,0,1,11.5,3.487c1.589,1.131,3.247,2.184,4.726,3.445,7.508,6.4,16.265,7.3,25.557,5.942.523-.076,1.023-.3,1.544-.391a13.654,13.654,0,0,1,1.709-.011,19.354,19.354,0,0,1-2.283,2.685c-8.833,6.98-23.151,7.814-33.014,1.977-6.707-3.969-10.94-3.838-16.96,1.01-4.14,3.333-8.84,4.386-13.92,4.206-6.077-.215-11.981-1.288-17.423-4.22a20.227,20.227,0,0,0-2.179-.846c-1.447,2.747-2.95,5.342-4.177,8.062a7.055,7.055,0,0,0-.424,3.593,18.419,18.419,0,0,0,17.56,16.3c10.513.26,17.986,4.762,22.155,14.431,4.112,9.535,11.531,14.992,21.258,17.749.979.278,1.933.649,3.373,1.137-3.928,2.168-7.649,2.217-11.259,1.762-9.445-1.191-17.8-4.326-23.11-13.115-3.815-6.311-8.095-7.85-15.293-6.3a20.163,20.163,0,0,1-13.447-1.608,40.707,40.707,0,0,1-16.626-14.147c-2.7,1.955-5.339,3.666-7.714,5.69a7.517,7.517,0,0,0-2.042,3.564c-2.175,7.646.8,16.736,7.915,20.28,11.164,5.563,15.554,14.223,15.013,26.266-.4,8.831,4.346,15.467,10.26,21.409.623.625,1.353,1.143,2.016,1.731a3.19,3.19,0,0,1,1.191,2.171c-2.458-.707-5.094-1.058-7.342-2.183-9.817-4.914-17.026-11.819-18.283-23.6-.7-6.511-4.051-11.3-11.19-12.327-5.069-.731-8.718-3.7-11.728-7.618-4.263-5.555-7.316-11.677-8.241-18.57-6.909-.556-11.057,2.8-13.9,8.2-3.091,5.879-3.46,11.855-.178,17.794.94,1.7,2.183,3.23,3.267,4.852a20.484,20.484,0,0,1,2.345,19.268,30.179,30.179,0,0,1-1.845,4.413c-5.161,9.354-4.26,18.726-.214,28.136.269.625.508,1.263,1.156,2.882a38.664,38.664,0,0,1-3.97-2.517c-8.564-7.3-12.38-20.658-8.838-31.378,1.848-5.595,1.539-12.524-4.731-16.45-3.608-2.26-5.529-5.872-6.62-9.958a39.371,39.371,0,0,1-.4-20.49q.336-1.281.6-2.58c.029-.136-.13-.31-.251-.573-6.136-3.146-12.073-3.12-17.607,1.529s-8.516,10.422-6.971,17.8c2.191,10.466-.766,18.909-9.488,25.2-7.23,5.218-10.827,12.45-11.888,21.132-.233,1.907-.549,3.8-.887,6.12-2.715-2.621-3.4-5.794-3.868-8.849-.975-6.4-.635-12.824,2.058-18.79a28.745,28.745,0,0,1,5.13-7.305c5.516-6.018,6.362-9.879,2.885-17.222a19.42,19.42,0,0,1-1.272-12.958c1.631-7.36,3.854-11.706,10.322-20.018-2.35-1.978-4.7-4.027-7.137-5.961a5.59,5.59,0,0,0-2.387-1c-8.012-1.494-17.315,3.67-20.344,11.324-.715,1.806-1.123,3.731-1.721,5.586a20.5,20.5,0,0,1-13.685,13.772,28.118,28.118,0,0,1-4.092,1.145c-10.455,1.828-17.459,8.107-22.33,17.178-.329.612-.707,1.2-1.578,2.662a18.049,18.049,0,0,1,.178-9.807c3.183-9.824,8.318-17.85,18.9-21.344,6.625-2.188,9.3-6.348,9.163-13.291a19.3,19.3,0,0,1,4.435-12.757,39.57,39.57,0,0,1,17.529-13.064c-1.892-5.487-3.577-10.645-10.09-12.4-6.869-1.85-12.995-1.03-18.353,3.783-1.578,1.417-2.879,3.137-4.4,4.625a20.4,20.4,0,0,1-18.47,5.941,33.192,33.192,0,0,1-3.671-.621c-10.866-3.068-20.252.023-28.778,6.812a9.524,9.524,0,0,1-1.58.685c.683-1.775,1.106-3.182,1.745-4.483,4.162-8.483,18.43-17.465,28.826-15.475,7.08,1.355,11.334-1.358,14.433-7.961a18.931,18.931,0,0,1,9.144-9.253c5.636-2.761,11.51-4.611,17.88-4.459,1.207.028,2.415,0,4.331,0,0-3.436.117-6.578-.061-9.7a6.976,6.976,0,0,0-1.306-3.356,18.775,18.775,0,0,0-22.152-6.809c-.995.373-1.964.816-2.947,1.223-7.518,3.113-14.92,2.585-21.058-2.616-9.2-7.8-19.315-10.812-31.1-8.355-.228.048-.53-.261-1.163-.6,5.168-5.454,11.692-7.225,18.644-7.791a25.4,25.4,0,0,1,16.7,4.027c6.052,4.005,10.764,3.52,16.507-1.076a19.379,19.379,0,0,1,12.287-4.259,41.111,41.111,0,0,1,21.2,5.276c1.479-2.826,2.984-5.391,4.162-8.1a7.691,7.691,0,0,0,.51-4.06,18.92,18.92,0,0,0-17.261-16.184,62.846,62.846,0,0,1-6.357-.487,20.374,20.374,0,0,1-13.642-9.362,32.47,32.47,0,0,1-2.585-4.642c-4.112-9.856-11.965-15.043-21.86-17.745a10.268,10.268,0,0,1-1.463-.545C2660.942-355.919,2660.924-356.148,2660.749-356.6Zm60.166,66.494c-1.175-.678-2.186-1.328-3.252-1.866-10.8-5.449-21.479-8.409-32.156.535-1.735,1.453-4.507,2.008-6.88,2.286-4.391.514-8.294-1.144-12-3.5a18.956,18.956,0,0,0-18.406-1.307c6.9.466,12.293,3.42,17.1,7.482,7.24,6.121,14.841,7.3,23.657,3.265,8.663-3.965,16.643-1.705,23.511,4.613,3.07,2.825,5.613,5.972,4.629,10.656a8.607,8.607,0,0,0,.383,2.7,428.628,428.628,0,0,1,146.473.038v-7.826a6.988,6.988,0,0,1,1.9-.171c6.705,1.728,12.993.109,19.2-2.3,4.991-1.941,8.956-4.925,10.95-10.149a12.606,12.606,0,0,1,6.746-7.166,19.289,19.289,0,0,1,11.419-1.554c6.941,1.128,12.227-2.191,17.421-6.2-6.33,1.9-12.593,1.572-18.827.04-8.921-2.193-16.35-.293-22.29,7.165-4.95,6.215-11.826,8.24-19.538,7.189-4.429-.6-9.064-1.8-11.7-5.551-2.568-3.655-4.011-8.1-6.026-12.361a15.224,15.224,0,0,1,2.256-.98c6.9-1.593,12.028-5.833,16.56-10.976,3.286-3.729,5.294-7.9,4.832-13.064-.49-5.487,2.062-9.647,6.363-12.682a29.242,29.242,0,0,1,6.653-3.191c6.341-2.374,9.961-7.212,12.5-13.18-4.974,4.722-10.983,7.091-17.511,8.415a28.606,28.606,0,0,0-3.575,1.031,17.788,17.788,0,0,0-11.849,11.993c-.427,1.352-.771,2.729-1.206,4.078a20.012,20.012,0,0,1-15.822,14.19c-3.67.753-8.169,1.026-11.384-.454-4.294-1.976-7.706-5.87-11.536-8.973,7.083-6.441,9.284-9.746,11.632-16.648,1.967-5.783,2.435-11.369-.913-16.89a11.69,11.69,0,0,1-.285-11.742,36.02,36.02,0,0,1,5.5-7.7,20.726,20.726,0,0,0,5.115-17.277c-2.345,6.96-6.935,11.54-12.132,15.634a26.954,26.954,0,0,0-2.743,2.515c-4.317,4.5-6.308,9.722-5.054,16.011a38.538,38.538,0,0,1,.685,5.807,22.274,22.274,0,0,1-17.578,22.336,6.7,6.7,0,0,1-2.594.121c-4.321-.9-8.619-1.9-13.3-2.944,3.868-6.626,4.39-13.58,3.453-20.768-.738-5.668-2.627-10.621-7.692-13.928a11.953,11.953,0,0,1-5.632-10.331,33.047,33.047,0,0,1,1.6-9.828c2.073-6.509.226-12.217-2.411-17.892-.358,9.267-.488,9.846-4.674,19.449q-.531,1.218-1.028,2.452a17.543,17.543,0,0,0,1.985,17.658c.711,1.017,1.436,2.025,2.136,3.05,6.838,10,3.457,22.66-5.4,29.992a7.3,7.3,0,0,1-2.812,1.4c-3.234.8-6.506,1.453-10.1,2.234a51.868,51.868,0,0,0-1.08-6.334c-3.1-10.344-7.24-19.785-19.587-21.956a11.605,11.605,0,0,1-8.714-7.148,34.319,34.319,0,0,1-2.513-9.127c-.9-6.573-5.049-10.737-9.488-14.756.873,3.506,2.328,6.744,3.017,10.137a60.23,60.23,0,0,1,.88,10.57c.142,6.253,2.381,11.4,7.489,15.116a52.569,52.569,0,0,0,4.586,2.683,21.885,21.885,0,0,1,10.229,26.008,7.633,7.633,0,0,1-2.168,3.487c-3.536,2.929-7.253,5.641-11.073,8.567a18.274,18.274,0,0,1-1.544-2.179c-3.2-6.311-8.539-10.313-14.576-13.53-4.192-2.235-8.483-3.129-13.3-1.7-7,2.083-12.442-.877-16.779-6.285-.882-1.1-1.52-2.393-2.316-3.566-3.606-5.32-9.193-7.168-15.074-8.676,6.078,4.069,9.581,9.961,12.632,16.259,3.455,7.133,8.969,11.273,17.172,11.281a24.886,24.886,0,0,1,3.7.394,22.118,22.118,0,0,1,18.8,20.175,6.363,6.363,0,0,1-.377,3.091C2725.216-298.513,2723.1-294.441,2720.915-290.106Z" transform="translate(-1588.491 536.751)" fill="#ccad6c" fill-rule="evenodd"/>
    </g>
  </g>
</svg>
