<svg xmlns="http://www.w3.org/2000/svg" width="320" height="320" viewBox="0 0 320 320">
  <g id="threnodite_logo" transform="translate(-1172.706 -127.706)">
    <g id="bg" transform="translate(1172.706 127.706)" fill="#fff" stroke="#707070" stroke-width="1" opacity="0">
      <rect width="320" height="320" stroke="none"/>
      <rect x="0.5" y="0.5" width="319" height="319" fill="none"/>
    </g>
    <g id="threnodite" transform="translate(-1397.886 -520.665)">
      <path id="Trazado_6630" data-name="Trazado 6630" d="M2817.635,894.219l4.679-2.57,1.108,2.38-5.286,1.175c2.99,8.984,7.706,16.591,15.781,21.4,3.221,1.917,6.231,4.31,9.76,5.677,3.723,1.442,7.493,2.81,11.331,3.9s7.761,1.891,11.684,2.624c6.406,1.2,12.846,2.206,19.262,3.349,4.289.764,4.582,1.147,4.638,5.465.013,1.006-.086,2.013-.148,3.308-4.615,0-9.02.1-13.419-.023-6.5-.177-13-.527-19.505-.768-9.9-.367-19.808-.771-29.714-1.029-7.106-.185-14.217-.126-21.325-.235-5.956-.092-5.927-.141-8.06-5.439-3.872-9.619-7.659-19.275-11.7-28.821-4.909-11.583-10.081-23.056-15.081-34.6-5.591-12.908-11.041-25.877-16.692-38.759-6.962-15.87-14.067-31.678-21.112-47.511-3.127-7.028-6.1-14.132-9.463-21.044-1.5-3.093-2.767-6.291-4.353-9.332-.476-.912-1.569-2.111-2.35-2.089-.819.023-1.917,1.206-2.349,2.135-2.991,6.442-5.939,12.908-8.712,19.447-4.393,10.362-8.652,20.78-12.941,31.186q-7.785,18.888-15.522,37.793c-8.307,20.281-16.468,40.623-24.954,60.829-4.182,9.957-8.944,19.67-13.468,29.482a21.678,21.678,0,0,1-1.747,3.093,5.657,5.657,0,0,1-5.1,2.729q-14.205.162-28.4.914c-9.307.5-18.594,1.352-27.894,2-1.865.129-3.747.019-5.982.019v-8.182c7.521-2.533,15.114-4.964,22.615-7.651,8.214-2.943,16.636-5.568,23.812-10.716a58.476,58.476,0,0,0,9.445-8.627c6.878-7.726,11.3-17.011,15.6-26.287,3.792-8.182,7.205-16.54,10.783-24.821a4.692,4.692,0,0,0,.3-.838c1.2-5.413,4.209-10.08,6.25-15.147s4.553-9.954,6.665-15c3.543-8.462,6.929-16.99,10.388-25.488,3.736-9.18,7.645-18.294,11.174-27.553,3.892-10.21,7.136-20.674,11.238-30.794a124.625,124.625,0,0,0,6.309-22.174,39.823,39.823,0,0,0,.708-14.518c-1.5-9.14-6.349-14.507-14.437-15.782-3.8-.6-7.625-1.032-11.45-1.433-5.5-.576-6.883-2.637-5.157-7.98a16.6,16.6,0,0,1,1.066-2.127c6.472.236,12.82.645,19.17.663,16.084.046,32.169-.056,48.254-.159,5.306-.034,10.61-.311,15.916-.371,3.251-.036,4.246.814,4.506,3.986a30.831,30.831,0,0,1-.308,4.925c-4.632,1.205-8.953,2.09-13.111,3.468-5.676,1.882-9.324,5.737-11.17,11.639-2.225,7.108-1.713,14.091.1,21.021a183.536,183.536,0,0,0,11.851,33.352c3.564,7.395,6.1,15.279,9.325,22.847,1.116,2.618,1.466,5.776,4.4,7.47.466.27-.021,1.882.335,2.7,2.01,4.612,3.6,9.538,6.4,13.638,2.489,3.655,3.2,7.915,5.462,11.592,2.237,3.634,3.7,7.739,5.559,11.612q2.883,6.011,5.874,11.971c2.852,5.7,5.787,11.351,8.612,17.06,6.107,12.347,12.156,24.722,18.259,37.072C2816.013,891.659,2816.893,892.958,2817.635,894.219ZM2722.07,687.478c2.351-.37,2.111-1.895,2.575-3.331C2722.117,684.17,2721.107,684.956,2722.07,687.478Zm-11.673,7.964c3.031-.427,2.892-2.552,2.538-4.764C2712.144,692.164,2711.353,693.651,2710.4,695.442Zm75.065,157.489c-1.943,2.719-1.943,2.719,1.346,3.656Zm21.2,52.441q.075-.455.149-.91l-2.48-.817q-.062.964-.122,1.928Zm-57.067-127.493q.02-.5.039-1h-2.776c0,.265,0,.529.007.794Zm-9.478-26.031c0,.069.005.137.008.205h3.885l-.023-.205Zm69.344,164.239.745-.958-2.4-1.619-.515.7Zm-94.966-229.793-.926-.244q-.333,1.3-.666,2.593l.66.2Q2714.025,687.57,2714.491,686.294Zm-4.37,15.751-.705.514,1.908,2.656.707-.515Zm66.186,152.705c.15,2.628,1.356,2.177,3.183,1.5Z" fill="#ccad6c" fill-rule="evenodd"/>
      <path id="Trazado_6631" data-name="Trazado 6631" d="M2794.255,1159.113c-5.986.64-11.037-1.631-15.558-6.727,1.379-1.462,2.833-2.88,4.138-4.423,1.239-1.464,2.325-3.058,3.543-4.682l-2.014-2.8h3.595c1.551-2.074,3.078-4.243,4.734-6.31,8.83-11.021,20.161-17.568,34.281-19.19,18.187-2.09,33.082,4.311,45.336,17.5a66.9,66.9,0,0,1,4.581,5.994c3.418,4.632,6.811,9.282,10.486,14.294-3.752,4.421-8.939,6.566-15.483,6.918a12.32,12.32,0,0,1,.313-2.642c1.26-3.472.541-6.787-1.055-9.844a45.946,45.946,0,0,0-8.283-11.439c-2.181.41-3.256,1.1-2.783,3.571,2.41,12.556-7.78,24.65-19.131,27.744-12.079,3.293-21.974-.351-30.081-9.182a18.567,18.567,0,0,1-4.982-13.005c.052-2.946.01-5.894.01-9.523-5.108,1.963-7.3,6.01-9.815,9.854C2793.272,1149.515,2793.081,1154.057,2794.255,1159.113Zm55.624-15.452c-.364-2.334-.548-4.713-1.126-6.992-1.475-5.822-8.914-12.244-14.326-12.312-5.94-.075-10.8,1.773-14.339,7.13a21.972,21.972,0,0,0-3.4,14.347c.615,8.04,8.242,15.327,15.728,15.587C2841.635,1161.74,2849.659,1153.5,2849.878,1143.661Z" transform="translate(-115.465 -243.472)" fill="#ccad6c" fill-rule="evenodd"/>
      <path id="Trazado_6632" data-name="Trazado 6632" d="M3100.85,847.718c1.943,5.93.451,11.488.38,17.8l-12.419-4.376c-1.885,1.094-2.658,2.52-2.806,4.925-.344,5.62.906,10.894,2.654,16.07.791,2.342.53,3.817-1.358,5.4-4.838,4.053-7.688,4.239-12.625.454-1.047-.8-2.026-1.694-3.219-2.7,3.085-5.835,3.3-12.229,4.156-18.49.04-.293.049-.591.061-.888.164-3.885-1.051-4.991-4.714-3.995-3.268.888-6.472,2.013-10.2,3.192-1.292-5.841-2.048-11.5-.153-17.457,3.379,1.148,6.415,2.261,9.5,3.206,2.968.908,4.535-.209,4.646-3.291.1-2.806.021-5.619.021-8.686l-3.127-.794,3.359-.7c.078-24.195.911-48.384,5.318-72.32a146.4,146.4,0,0,1,4.213,25.454c1.636,17.42,1.567,34.885,1.911,52.343.027,1.334,0,2.67.065,4,.187,3.641,1.686,4.846,5.116,3.88C3094.6,849.921,3097.494,848.835,3100.85,847.718Zm-21.728-6.732-.653.8c.75.537,1.493,1.086,2.269,1.584.048.031.35-.334.687-.667Z" transform="translate(-271.245 -49.545)" fill="#ccad6c" fill-rule="evenodd"/>
      <path id="Trazado_6633" data-name="Trazado 6633" d="M2698.375,919.229c.9,1.851,1.8,3.636,2.639,5.45,1.487,3.216.354,6.322-.325,9.812a55.385,55.385,0,0,0-22.924-.3c3.694,7.081,9.2,12.028,15.088,16.616-2.858,5.783-3.967,7.42-11.64,6.929-.764-6.839-3.81-12.964-7.414-20.051a62.618,62.618,0,0,0-4.745,20.9c-5.172,2.147-8.176.943-12.232-4.951,3.147-3.739,6.953-7.129,8.456-12.07.047-.152-.589-.513-1.183-1.005,3.1.166,3.73-1.906,4.524-4.358-7.4.308-13.221,4.3-19.565,6.826-4.875-3.011-5.68-7.032-2.358-12.941,7.227,1.575,14.586,1.277,22.411.39-4.715-6.285-9.071-12.208-15.119-16.346,1.258-5.474,4.874-8.254,10.538-7.43l7.317,19.191,1.1-.1a62.794,62.794,0,0,0,4.484-19.714c6.454-1.591,8.042-.958,12.209,4.891-4.255,5.47-9.217,10.608-12.03,18.129C2685.376,926.392,2693.4,925.915,2698.375,919.229Z" transform="translate(-41.111 -127.361)" fill="#ccad6c" fill-rule="evenodd"/>
      <path id="Trazado_6634" data-name="Trazado 6634" d="M2955.736,1121.057h-4.2l-.009-.235h4.2Z" transform="translate(-211.359 -246.927)" fill="#ccad6c" fill-rule="evenodd"/>
      <path id="Trazado_6635" data-name="Trazado 6635" d="M3033.363,1196.36c2.613.061,2.613.061,2.643,3.221Z" transform="translate(-256.763 -288.838)" fill="#ccad6c" fill-rule="evenodd"/>
      <path id="Trazado_6636" data-name="Trazado 6636" d="M3025.784,1194.232l1.956.2c.034.177.067.354.1.531a4,4,0,0,1-1.339.489c-.323,0-.641-.431-.96-.669Z" transform="translate(-252.423 -287.657)" fill="#ccad6c" fill-rule="evenodd"/>
      <path id="Trazado_6637" data-name="Trazado 6637" d="M2966.425,1176.317a7.811,7.811,0,0,1,1.538-.17c.361.028.7.3.947,1.192l-2.492-.29Q2966.421,1176.684,2966.425,1176.317Z" transform="translate(-219.619 -277.62)" fill="#ccad6c" fill-rule="evenodd"/>
    </g>
  </g>
</svg>
